<?xml version="1.0" standalone="no"?>
<!DOCTYPE svg PUBLIC "-//W3C//DTD SVG 20010904//EN"
 "http://www.w3.org/TR/2001/REC-SVG-20010904/DTD/svg10.dtd">
<svg version="1.0" xmlns="http://www.w3.org/2000/svg"
 width="700.000000pt" height="700.000000pt" viewBox="0 0 700.000000 700.000000"
 preserveAspectRatio="xMidYMid meet">
<metadata>
Created by potrace 1.14, written by Peter Selinger 2001-2017
</metadata>
<g transform="translate(0.000000,700.000000) scale(0.100000,-0.100000)"
fill="#000000" stroke="none">
<path d="M3845 5821 c-129 -21 -242 -72 -356 -160 -182 -140 -267 -319 -257
-543 4 -85 9 -105 41 -173 49 -103 138 -193 222 -224 238 -89 523 -7 731 210
101 106 144 200 165 357 31 236 -99 459 -301 516 -70 19 -181 27 -245 17z
m105 -380 c20 -11 44 -36 58 -62 20 -38 23 -53 17 -103 -8 -76 -22 -103 -85
-159 -62 -56 -103 -70 -183 -65 -102 6 -157 64 -157 165 1 132 116 243 255
243 40 0 72 -6 95 -19z"/>
<path d="M2707 4328 c-3 -13 -18 -86 -32 -163 -14 -77 -28 -148 -31 -157 -5
-17 10 -18 222 -18 l227 0 -6 -27 c-3 -16 -110 -567 -238 -1225 l-233 -1198
-226 -2 -225 -3 -32 -160 c-18 -88 -32 -170 -33 -182 l0 -23 980 0 979 0 7 38
c4 20 19 100 34 177 15 77 25 143 23 148 -2 4 -103 7 -224 7 -183 0 -219 2
-219 14 0 13 524 2722 537 2774 l5 22 -755 0 -755 0 -5 -22z m1083 -340 c0 -2
-108 -552 -239 -1223 l-238 -1220 -167 -3 -168 -2 4 22 c2 13 110 564 239
1226 l234 1202 167 0 c93 0 168 -1 168 -2z"/>
</g>
</svg>
