<svg xmlns="http://www.w3.org/2000/svg" width="177" height="87" fill="none"><path fill="url(#a)" d="M165.515 2.763A19.84 19.84 0 0 0 156.82.77a19.84 19.84 0 0 0-8.694 1.993z"/><path fill="url(#b)" d="M146.006 3.958q.317-.205.641-.399h20.346a20 20 0 0 1 3.228 2.391H143.42q.222-.203.451-.398h-19.923q.145-.125.292-.245h-19.625q.517-.416 1.063-.797h19.596q.397-.286.808-.552z"/><path fill="url(#c)" d="M173.052 9.138a20 20 0 0 0-2.004-2.39h-28.456q-.192.195-.38.398h-19.923q-.252.27-.493.551h-19.68q-.342.39-.665.797h19.693l-.187.246h19.923a17 17 0 0 0-.291.398z"/><path fill="url(#d)" d="M139.799 10.333q.123-.2.25-.398h33.543q.736 1.146 1.315 2.39h-36.173q.093-.2.19-.398h-19.923l.122-.245H99.389q.21-.405.437-.797h19.725q.159-.279.325-.552z"/><path fill="url(#e)" d="M176.064 15.514a20 20 0 0 0-.809-2.391h-36.869q-.081.198-.159.398h-19.923q-.107.275-.204.552H98.342q-.142.395-.27.797h19.766l-.073.245h19.923q-.057.198-.111.399z"/><path fill="url(#f)" d="M137.295 16.709q.042-.2.086-.399h38.879a20 20 0 0 1 .385 2.391h-39.65l.044-.398h-19.923q.014-.123.03-.245H97.354q.056-.402.129-.797h19.785q.048-.278.104-.552z"/><path fill="url(#g)" d="M176.744 20.694q0 .601-.036 1.195h-39.776a18 18 0 0 1-.019-.398h-19.924l-.008-.246H97.165a21 21 0 0 1 0-.797h19.81q.003-.276.014-.551h19.924q.007-.2.019-.399h39.776q.036.594.036 1.196"/><path fill="url(#h)" d="M176.645 22.686q-.121 1.219-.385 2.39h-38.879q-.044-.198-.086-.398h-19.923l-.048-.245H97.483q-.072-.396-.129-.797h19.835a20 20 0 0 1-.073-.552h19.923l-.044-.398z"/><path fill="url(#i)" d="M138.227 27.866q.078.2.159.398h36.869a20 20 0 0 0 .809-2.39h-38.487q.054.2.111.398h-19.923q.08.278.17.552H98.073q.126.402.269.797h19.869q.045.123.093.245z"/><path fill="url(#j)" d="M174.907 29.061q-.579 1.246-1.315 2.391h-33.543a20 20 0 0 1-.25-.398h-19.923l-.147-.245H99.826a20 20 0 0 1-.437-.797h19.893a22 22 0 0 1-.281-.552h19.923a19 19 0 0 1-.19-.399z"/><path fill="url(#k)" d="M142.212 34.242q.188.201.38.398h28.456a20 20 0 0 0 2.004-2.39h-32.463q.143.2.291.398h-19.923q.21.28.43.551h-19.936q.323.408.665.797h19.949q.111.124.224.245z"/><path fill="url(#l)" d="M170.221 35.437c-.99.9-2.071 1.702-3.228 2.39h-20.346a21 21 0 0 1-.641-.398h-19.924q-.186-.12-.369-.245h-20.035q-.546-.381-1.063-.797h20.006q-.343-.269-.673-.552h19.923a20 20 0 0 1-.451-.398z"/><path fill="url(#m)" d="M148.126 38.625a19.84 19.84 0 0 0 8.694 1.992 19.84 19.84 0 0 0 8.695-1.992z"/><path fill="url(#n)" d="M123.897 2.119a19.9 19.9 0 0 0-6.813-1.196c-2.393 0-4.688.422-6.813 1.196z"/><path fill="url(#o)" d="M110.271 39.575a19.9 19.9 0 0 0 6.813 1.195c2.393 0 4.688-.422 6.813-1.195z"/><path fill="url(#p)" d="M136.897.77c2.776 0 5.42.568 7.821 1.594h-15.642A19.9 19.9 0 0 1 136.897.77"/><path fill="url(#q)" d="M136.897 40.617c-2.776 0-5.42-.568-7.821-1.594h15.642a19.9 19.9 0 0 1-7.821 1.594"/><path fill="#7D919C" d="M171.132 86.404v-7.088h1.041v7.088zm4.017 0-3.361-3.477v-.114l3.403-3.497h1.301l-3.757 3.861.104-.614 3.716 3.84zM164.677 86.404v-7.088h2.603q.728 0 1.269.312.552.301.854.822t.302 1.166-.302 1.166a2.16 2.16 0 0 1-.854.822q-.54.302-1.269.302h-1.749v-.979h1.572q.686 0 1.103-.343.416-.354.416-.968 0-.656-.416-.989-.417-.333-1.103-.333h-1.582l.197-.24v6.35zm3.956 0-1.655-2.946h1.145l1.655 2.946zM156.146 82.865q0-.79.271-1.457.281-.666.781-1.156t1.165-.76a3.9 3.9 0 0 1 1.468-.27q.78 0 1.447.27.666.271 1.155.76.5.49.77 1.156a3.7 3.7 0 0 1 .281 1.457q0 .78-.281 1.447a3.45 3.45 0 0 1-1.925 1.925 3.8 3.8 0 0 1-1.447.27 3.9 3.9 0 0 1-1.468-.27 3.6 3.6 0 0 1-1.165-.76 3.6 3.6 0 0 1-.781-1.165 3.8 3.8 0 0 1-.271-1.447m1.062 0q0 .76.343 1.364.344.593.937.936.593.345 1.343.344.75 0 1.332-.344a2.47 2.47 0 0 0 .916-.937q.344-.603.344-1.363 0-.77-.344-1.364a2.47 2.47 0 0 0-.916-.936 2.57 2.57 0 0 0-1.332-.344q-.75 0-1.343.344a2.53 2.53 0 0 0-.937.936q-.343.594-.343 1.364M152.688 86.404l-1.947-6.318-.239-.77h1.02l1.988 6.567-.458-.104 1.728-6.463h1.051l-1.925 7.088zm-4.569 0-1.926-7.088h1.051l1.728 6.463-.458.104 1.988-6.567h1.02l-.239.77-1.947 6.318zM142.522 86.404v-6.308h1.041v6.308zm-2.217-6.11v-.978h5.579v.978zM136.155 83.333v-.978h2.863v.978zm-.031-3.039.24-.333v5.62l-.292-.166h3.56v.989h-4.309v-7.088h4.309v.978zM132.666 86.404l-4.58-5.943.583-.167v6.11h-1.041v-7.088h.885l4.424 5.735h-.427v-5.735h1.041v7.088z"/><path fill="#283841" d="M80.57 52.797v19.155h5.72V52.797zM80.962 44.297q-.9.94-.9 2.468 0 1.488.9 2.428.94.9 2.468.901 1.527 0 2.429-.9.94-.94.94-2.43 0-1.527-.94-2.467-.901-.94-2.429-.94t-2.468.94M112.976 71.638q2.037.9 4.348.901 2.193 0 3.917-.783 1.724-.784 2.703-2.194.98-1.449.979-3.33 0-2.427-1.567-3.877-1.527-1.45-5.092-2.311-2.115-.51-2.82-.901-.705-.392-.705-.98 0-.625.587-.94.588-.313 1.411-.313 1.527 0 2.742.548 1.213.549 2.076 1.332l3.525-3.016q-1.254-1.488-3.173-2.507-1.919-1.058-4.661-1.058-2.311 0-3.996.862-1.684.862-2.585 2.311a5.7 5.7 0 0 0-.901 3.134q0 2.39 1.449 3.839 1.489 1.41 4.505 2.154 1.646.43 2.507.744t1.175.627q.314.314.314.784 0 .547-.549.94-.509.352-1.371.352-1.45 0-2.663-.587-1.215-.588-2.547-1.959l-3.251 3.134q1.645 2.193 3.643 3.094M147.171 71.952V52.797h4.231l.676 2.187a15 15 0 0 1 .773-.62 10.7 10.7 0 0 1 2.742-1.489 8.9 8.9 0 0 1 3.095-.548q1.919 0 3.055.666a4.1 4.1 0 0 1 1.763 1.763q.087.16.167.325.43-.372.89-.717a11 11 0 0 1 2.703-1.489 8.9 8.9 0 0 1 3.094-.548q1.92 0 3.095.666a4.1 4.1 0 0 1 1.763 1.763q.587 1.136.822 2.585.235 1.41.235 2.938v11.673h-5.758v-11.36q0-1.645-.587-2.154-.549-.549-1.411-.549-1.253 0-2.428.744-.824.495-1.533 1.201.005.222.005.445v11.673h-5.719v-11.36q0-1.645-.587-2.154-.588-.549-1.45-.549-1.214 0-2.389.744a8 8 0 0 0-1.528 1.196v12.123zM133.12 72.422q-2.115 0-3.447-.627-1.291-.627-2.037-1.724a7.5 7.5 0 0 1-.979-2.546 19 19 0 0 1-.235-3.055V52.797h5.719v11.36q0 1.605.666 2.154.666.51 1.645.51.862 0 1.685-.275a7.4 7.4 0 0 0 1.605-.862q.414-.31.784-.685V52.797h5.758v19.155h-4.27l-.673-2.177a17 17 0 0 1-.737.61 10.7 10.7 0 0 1-2.585 1.488 7.7 7.7 0 0 1-2.899.549"/><path fill="#283841" fill-rule="evenodd" d="M99.839 72.422q-2.547-.001-4.426-1.136a7 7 0 0 1-.431-.298v8.406h-5.72V52.797h4.27l.565 1.908q.63-.67 1.394-1.164 1.88-1.215 4.387-1.214 2.624 0 4.583 1.293 1.997 1.253 3.095 3.525 1.136 2.272 1.136 5.249 0 2.938-1.136 5.21t-3.134 3.564q-1.998 1.254-4.583 1.254m-1.058-5.367q1.763 0 2.899-1.292 1.175-1.332 1.175-3.37 0-2.075-1.175-3.368-1.136-1.332-2.899-1.332-1.723 0-2.898 1.332-1.175 1.293-1.175 3.33 0 2.076 1.175 3.408 1.175 1.292 2.898 1.292M68.603 72.422q-2.977 0-5.249-1.254a9.07 9.07 0 0 1-3.525-3.564q-1.254-2.272-1.254-5.21 0-2.977 1.254-5.249a8.8 8.8 0 0 1 3.525-3.525q2.272-1.293 5.249-1.293 3.015 0 5.288 1.293a8.8 8.8 0 0 1 3.525 3.525q1.293 2.272 1.293 5.249 0 2.938-1.293 5.21a9.07 9.07 0 0 1-3.525 3.564q-2.272 1.254-5.288 1.254m0-5.563q1.92 0 3.094-1.214 1.215-1.254 1.215-3.251 0-2.037-1.215-3.29-1.175-1.254-3.094-1.254-1.841 0-3.055 1.254-1.175 1.214-1.175 3.25 0 2.038 1.175 3.291 1.215 1.214 3.055 1.214M43.951 79.316q1.607.47 3.134.47 3.095 0 5.288-1.215 2.233-1.214 3.408-3.603t1.175-5.758V52.797h-4.27l-.631 2.1a7.7 7.7 0 0 0-1.601-1.395q-1.803-1.175-4.191-1.175-2.547 0-4.544 1.214-1.998 1.175-3.134 3.29-1.097 2.077-1.097 4.819 0 2.703 1.136 4.818 1.175 2.115 3.134 3.29 1.998 1.175 4.583 1.175 2.428 0 4.191-1.097a7 7 0 0 0 .705-.506v1.094q0 2.31-1.136 3.447-1.135 1.175-2.938 1.175-1.566 0-2.585-.666-.98-.666-1.959-2.193l-4.112 2.115.313.666q.9 1.763 2.233 2.82a7.8 7.8 0 0 0 2.898 1.528m6.424-14.611q-1.135 1.215-2.937 1.214-1.803 0-2.977-1.214-1.137-1.215-1.136-3.055 0-1.92 1.136-3.134 1.174-1.214 2.977-1.214 1.8 0 2.937 1.214 1.175 1.215 1.175 3.134 0 1.84-1.175 3.055M26.963 72.422q-2.977 0-5.25-1.254a9.07 9.07 0 0 1-3.525-3.564q-1.253-2.272-1.253-5.21 0-2.977 1.253-5.249a8.8 8.8 0 0 1 3.526-3.525q2.271-1.293 5.249-1.293 3.015 0 5.288 1.293a8.8 8.8 0 0 1 3.525 3.525q1.293 2.272 1.293 5.249 0 2.938-1.293 5.21a9.07 9.07 0 0 1-3.525 3.564q-2.273 1.254-5.288 1.254m0-5.563q1.919 0 3.094-1.214 1.214-1.254 1.214-3.251 0-2.037-1.214-3.29-1.175-1.254-3.094-1.254-1.841 0-3.056 1.254-1.175 1.214-1.175 3.25 0 2.038 1.175 3.291 1.215 1.214 3.056 1.214" clip-rule="evenodd"/><path fill="#283841" d="M.355 71.952h16.217v-5.523H6.074V45.276H.355z"/><defs><linearGradient id="a" x1="97.161" x2="174.641" y1="18.343" y2="18.343" gradientUnits="userSpaceOnUse"><stop stop-color="#0046F9"/><stop offset=".198" stop-color="#16DBF6"/><stop offset=".401" stop-color="#FFE713"/><stop offset=".604" stop-color="#FF7917"/><stop offset=".802" stop-color="#FB0000"/><stop offset="1" stop-color="#B30000"/></linearGradient><linearGradient id="b" x1="97.161" x2="174.641" y1="18.343" y2="18.343" gradientUnits="userSpaceOnUse"><stop stop-color="#0046F9"/><stop offset=".198" stop-color="#16DBF6"/><stop offset=".401" stop-color="#FFE713"/><stop offset=".604" stop-color="#FF7917"/><stop offset=".802" stop-color="#FB0000"/><stop offset="1" stop-color="#B30000"/></linearGradient><linearGradient id="c" x1="97.161" x2="174.641" y1="18.343" y2="18.343" gradientUnits="userSpaceOnUse"><stop stop-color="#0046F9"/><stop offset=".198" stop-color="#16DBF6"/><stop offset=".401" stop-color="#FFE713"/><stop offset=".604" stop-color="#FF7917"/><stop offset=".802" stop-color="#FB0000"/><stop offset="1" stop-color="#B30000"/></linearGradient><linearGradient id="d" x1="97.161" x2="174.641" y1="18.343" y2="18.343" gradientUnits="userSpaceOnUse"><stop stop-color="#0046F9"/><stop offset=".198" stop-color="#16DBF6"/><stop offset=".401" stop-color="#FFE713"/><stop offset=".604" stop-color="#FF7917"/><stop offset=".802" stop-color="#FB0000"/><stop offset="1" stop-color="#B30000"/></linearGradient><linearGradient id="e" x1="97.161" x2="174.641" y1="18.343" y2="18.343" gradientUnits="userSpaceOnUse"><stop stop-color="#0046F9"/><stop offset=".198" stop-color="#16DBF6"/><stop offset=".401" stop-color="#FFE713"/><stop offset=".604" stop-color="#FF7917"/><stop offset=".802" stop-color="#FB0000"/><stop offset="1" stop-color="#B30000"/></linearGradient><linearGradient id="f" x1="97.161" x2="174.641" y1="18.343" y2="18.343" gradientUnits="userSpaceOnUse"><stop stop-color="#0046F9"/><stop offset=".198" stop-color="#16DBF6"/><stop offset=".401" stop-color="#FFE713"/><stop offset=".604" stop-color="#FF7917"/><stop offset=".802" stop-color="#FB0000"/><stop offset="1" stop-color="#B30000"/></linearGradient><linearGradient id="g" x1="97.161" x2="174.641" y1="18.343" y2="18.343" gradientUnits="userSpaceOnUse"><stop stop-color="#0046F9"/><stop offset=".198" stop-color="#16DBF6"/><stop offset=".401" stop-color="#FFE713"/><stop offset=".604" stop-color="#FF7917"/><stop offset=".802" stop-color="#FB0000"/><stop offset="1" stop-color="#B30000"/></linearGradient><linearGradient id="h" x1="97.161" x2="174.641" y1="18.343" y2="18.343" gradientUnits="userSpaceOnUse"><stop stop-color="#0046F9"/><stop offset=".198" stop-color="#16DBF6"/><stop offset=".401" stop-color="#FFE713"/><stop offset=".604" stop-color="#FF7917"/><stop offset=".802" stop-color="#FB0000"/><stop offset="1" stop-color="#B30000"/></linearGradient><linearGradient id="i" x1="97.161" x2="174.641" y1="18.343" y2="18.343" gradientUnits="userSpaceOnUse"><stop stop-color="#0046F9"/><stop offset=".198" stop-color="#16DBF6"/><stop offset=".401" stop-color="#FFE713"/><stop offset=".604" stop-color="#FF7917"/><stop offset=".802" stop-color="#FB0000"/><stop offset="1" stop-color="#B30000"/></linearGradient><linearGradient id="j" x1="97.161" x2="174.641" y1="18.343" y2="18.343" gradientUnits="userSpaceOnUse"><stop stop-color="#0046F9"/><stop offset=".198" stop-color="#16DBF6"/><stop offset=".401" stop-color="#FFE713"/><stop offset=".604" stop-color="#FF7917"/><stop offset=".802" stop-color="#FB0000"/><stop offset="1" stop-color="#B30000"/></linearGradient><linearGradient id="k" x1="97.161" x2="174.641" y1="18.343" y2="18.343" gradientUnits="userSpaceOnUse"><stop stop-color="#0046F9"/><stop offset=".198" stop-color="#16DBF6"/><stop offset=".401" stop-color="#FFE713"/><stop offset=".604" stop-color="#FF7917"/><stop offset=".802" stop-color="#FB0000"/><stop offset="1" stop-color="#B30000"/></linearGradient><linearGradient id="l" x1="97.161" x2="174.641" y1="18.343" y2="18.343" gradientUnits="userSpaceOnUse"><stop stop-color="#0046F9"/><stop offset=".198" stop-color="#16DBF6"/><stop offset=".401" stop-color="#FFE713"/><stop offset=".604" stop-color="#FF7917"/><stop offset=".802" stop-color="#FB0000"/><stop offset="1" stop-color="#B30000"/></linearGradient><linearGradient id="m" x1="97.161" x2="174.641" y1="18.343" y2="18.343" gradientUnits="userSpaceOnUse"><stop stop-color="#0046F9"/><stop offset=".198" stop-color="#16DBF6"/><stop offset=".401" stop-color="#FFE713"/><stop offset=".604" stop-color="#FF7917"/><stop offset=".802" stop-color="#FB0000"/><stop offset="1" stop-color="#B30000"/></linearGradient><linearGradient id="n" x1="97.161" x2="174.641" y1="18.343" y2="18.343" gradientUnits="userSpaceOnUse"><stop stop-color="#0046F9"/><stop offset=".198" stop-color="#16DBF6"/><stop offset=".401" stop-color="#FFE713"/><stop offset=".604" stop-color="#FF7917"/><stop offset=".802" stop-color="#FB0000"/><stop offset="1" stop-color="#B30000"/></linearGradient><linearGradient id="o" x1="97.161" x2="174.641" y1="18.343" y2="18.343" gradientUnits="userSpaceOnUse"><stop stop-color="#0046F9"/><stop offset=".198" stop-color="#16DBF6"/><stop offset=".401" stop-color="#FFE713"/><stop offset=".604" stop-color="#FF7917"/><stop offset=".802" stop-color="#FB0000"/><stop offset="1" stop-color="#B30000"/></linearGradient><linearGradient id="p" x1="97.161" x2="174.641" y1="18.343" y2="18.343" gradientUnits="userSpaceOnUse"><stop stop-color="#0046F9"/><stop offset=".198" stop-color="#16DBF6"/><stop offset=".401" stop-color="#FFE713"/><stop offset=".604" stop-color="#FF7917"/><stop offset=".802" stop-color="#FB0000"/><stop offset="1" stop-color="#B30000"/></linearGradient><linearGradient id="q" x1="97.161" x2="174.641" y1="18.343" y2="18.343" gradientUnits="userSpaceOnUse"><stop stop-color="#0046F9"/><stop offset=".198" stop-color="#16DBF6"/><stop offset=".401" stop-color="#FFE713"/><stop offset=".604" stop-color="#FF7917"/><stop offset=".802" stop-color="#FB0000"/><stop offset="1" stop-color="#B30000"/></linearGradient></defs></svg>