<svg xmlns="http://www.w3.org/2000/svg" width="242" height="40" fill="none"><path fill="#283841" d="M53.174 3.47v27.447h17.315v-4.973H58.884V3.47zM140.38 10.802v20.115h5.526V10.802zM140.38 3.47v5.527h5.526V3.47z"/><path fill="#283841" fill-rule="evenodd" d="M148.845 38.286V10.802h5.158v2.087a6.6 6.6 0 0 1 2.21-1.682q1.731-.847 3.942-.847 2.873 0 5.195 1.4a10.3 10.3 0 0 1 3.684 3.795q1.363 2.357 1.363 5.305 0 2.91-1.363 5.305a10 10 0 0 1-3.647 3.794q-2.322 1.4-5.269 1.4-2.062 0-3.831-.736a7 7 0 0 1-1.916-1.25v8.913zm10.61-11.9q1.548 0 2.726-.7a4.87 4.87 0 0 0 1.842-1.953q.664-1.253.664-2.873 0-1.622-.664-2.837a4.87 4.87 0 0 0-1.842-1.953q-1.178-.737-2.726-.737-1.474 0-2.652.7-1.143.7-1.806 1.953-.626 1.253-.626 2.874 0 1.62.626 2.873.663 1.253 1.806 1.953 1.178.7 2.652.7" clip-rule="evenodd"/><path fill="#283841" d="M174.628 29.812q2.469 1.548 5.784 1.547 2.358 0 4.09-.773 1.731-.81 2.689-2.21.995-1.4.995-3.28 0-2.173-1.326-3.647-1.327-1.51-3.832-2.247l-3.205-.958a8 8 0 0 1-1.253-.479q-.478-.258-.7-.59a1.3 1.3 0 0 1-.221-.736q0-.774.59-1.216.626-.442 1.694-.442 1.475 0 2.616.774 1.179.736 1.621 1.989l4.09-1.916q-.921-2.506-3.169-3.868-2.21-1.4-5.158-1.4-2.247 0-3.978.81-1.732.774-2.69 2.174t-.958 3.279q0 2.137 1.327 3.72 1.326 1.549 3.794 2.248l3.426.958q.664.184 1.106.442.441.258.663.59.22.295.221.736 0 .848-.626 1.327-.627.48-1.806.479a5.05 5.05 0 0 1-2.947-.921q-1.326-.922-2.1-2.542l-4.053 1.915q.885 2.653 3.316 4.237M211.333 10.802h5.158v2.43a4.55 4.55 0 0 1 1.584-1.767q1.695-1.105 4.053-1.105 2.505 0 4.384 1.29 1.118.73 1.746 1.761a6.6 6.6 0 0 1 1.901-1.872q1.842-1.18 4.31-1.18 2.175 0 3.832.959a6.8 6.8 0 0 1 2.653 2.69q.957 1.693.957 3.978v12.931h-5.526V19.165q0-1.179-.442-2.026a3.1 3.1 0 0 0-1.179-1.327q-.774-.479-1.879-.479-1.068 0-1.879.48a3.34 3.34 0 0 0-1.215 1.326q-.406.847-.406 2.026v11.752h-5.526V19.165q0-1.179-.442-2.026a3.1 3.1 0 0 0-1.179-1.327q-.774-.479-1.879-.479-1.068 0-1.879.48-.774.478-1.216 1.326-.405.847-.405 2.026v11.752h-5.526zM197.604 31.36q-2.431 0-4.163-1.032-1.695-1.069-2.579-2.947t-.884-4.385V10.802h5.526v11.752q0 1.143.442 2.027.48.847 1.327 1.326t1.915.479q1.106 0 1.916-.48.847-.477 1.29-1.325.479-.885.479-2.027V10.802h5.526v20.115h-5.158V28.47a4.94 4.94 0 0 1-1.989 2.043q-1.548.848-3.648.848"/><path fill="#283841" fill-rule="evenodd" d="M127.472 31.36q-2.984 0-5.453-1.364a10.7 10.7 0 0 1-3.905-3.72q-1.437-2.395-1.437-5.416 0-3.058 1.437-5.416a10.7 10.7 0 0 1 3.905-3.721q2.469-1.363 5.453-1.363t5.416 1.363q2.431 1.364 3.868 3.72 1.473 2.359 1.474 5.417 0 3.021-1.474 5.415a10.4 10.4 0 0 1-3.868 3.721q-2.432 1.365-5.416 1.364m0-4.974q1.51 0 2.616-.7a4.7 4.7 0 0 0 1.768-1.953q.663-1.253.663-2.873 0-1.622-.663-2.837a4.7 4.7 0 0 0-1.768-1.953q-1.105-.737-2.616-.737-1.51 0-2.653.737-1.142.7-1.805 1.953-.627 1.215-.626 2.837 0 1.62.626 2.873.663 1.253 1.805 1.953 1.143.7 2.653.7M100.266 38.249q1.989.773 4.311.773 2.91 0 5.121-1.178 2.247-1.18 3.536-3.28 1.29-2.063 1.29-4.715V10.802h-5.158v2.113a6.9 6.9 0 0 0-2.063-1.671q-1.621-.884-3.795-.884-2.763 0-4.936 1.252a9.1 9.1 0 0 0-3.427 3.464q-1.252 2.174-1.252 5.01 0 2.837 1.252 5.084a9.3 9.3 0 0 0 3.463 3.5q2.21 1.253 5.011 1.253 2.174 0 3.794-.81a6.4 6.4 0 0 0 1.585-1.168v1.904q0 1.29-.553 2.247a3.3 3.3 0 0 1-1.511 1.437q-.995.516-2.357.516-1.732 0-2.985-.81t-1.657-2.211l-5.121 1.805a8 8 0 0 0 2.026 3.242q1.437 1.4 3.426 2.174m6.558-13.926q-1.032.59-2.432.59t-2.505-.59a4.7 4.7 0 0 1-1.695-1.695q-.589-1.068-.589-2.468 0-1.437.589-2.506a4.33 4.33 0 0 1 1.695-1.694q1.105-.627 2.505-.627 1.363 0 2.395.627a4.15 4.15 0 0 1 1.621 1.694q.59 1.07.59 2.506t-.59 2.505a3.96 3.96 0 0 1-1.584 1.658M81.795 31.36q-2.984 0-5.453-1.364a10.7 10.7 0 0 1-3.905-3.72q-1.436-2.395-1.436-5.416 0-3.058 1.436-5.416a10.7 10.7 0 0 1 3.906-3.721q2.468-1.363 5.452-1.363t5.416 1.363q2.43 1.364 3.868 3.72 1.474 2.359 1.474 5.417 0 3.021-1.474 5.415a10.4 10.4 0 0 1-3.868 3.721q-2.432 1.365-5.416 1.364m0-4.974q1.51 0 2.616-.7a4.7 4.7 0 0 0 1.768-1.953q.663-1.253.663-2.873 0-1.622-.663-2.837a4.7 4.7 0 0 0-1.768-1.953q-1.106-.737-2.616-.737t-2.653.737q-1.141.7-1.805 1.953-.626 1.215-.626 2.837 0 1.62.626 2.873.663 1.253 1.805 1.953 1.143.7 2.653.7" clip-rule="evenodd"/><path fill="#BB6BD9" d="M35.736 12.493c-2.237-3.852-7.829-3.852-10.066 0l-3.322 5.721h6.658c3.952 0 6.935 2.777 7.689 6.155l.817-1.408a7.37 7.37 0 0 0 0-7.41z"/><path fill="#EB5757" d="M24.197 35.682c2.534-2.343 3.44-6.276 1.475-9.66l-3.35-5.769h6.684c4.473 0 7.27 4.815 5.033 8.667l-2.183 3.76a6.05 6.05 0 0 1-5.23 3.001z"/><path fill="#F2994A" d="M8.035 30.586c3.317 1.034 7.22-.148 9.194-3.546l3.333-5.739 3.333 5.74c2.238 3.853-.56 8.669-5.034 8.667h-4.367a6.05 6.05 0 0 1-5.228-3.003z"/><path fill="#F2C94C" d="m4.429 14.144-.818 1.408a7.37 7.37 0 0 0 0 7.409l1.777 3.059c2.236 3.852 7.828 3.852 10.065 0l3.333-5.739h-6.672c-3.945 0-6.926-2.767-7.685-6.137M7.032 9.662V9.66z"/><path fill="#27AE60" d="M16.928 2.81c-2.536 2.342-3.443 6.277-1.477 9.662l3.35 5.77h-6.687c-4.474 0-7.27-4.815-5.033-8.667l2.185-3.762a6.05 6.05 0 0 1 5.228-3.002z"/><path fill="#2F80ED" d="m20.567 17.203-3.34-5.75c-2.237-3.853.56-8.668 5.034-8.667h4.365a6.05 6.05 0 0 1 5.23 3.002l1.243 2.142c-3.318-1.04-7.23.141-9.205 3.543z"/><path fill="#283841" fill-rule="evenodd" d="M26.627.746c2.89 0 5.56 1.534 7.005 4.022 1.89 3.253 3.768 6.511 5.657 9.764a9.4 9.4 0 0 1 0 9.449c-1.882 3.24-3.775 6.476-5.657 9.718a8.1 8.1 0 0 1-7.005 4.022c-4.045 0-8.088.027-12.133.025a8.1 8.1 0 0 1-7.004-4.022q-2.828-4.871-5.655-9.744a9.4 9.4 0 0 1 0-9.448L7.49 4.793A8.1 8.1 0 0 1 14.494.771c4.045 0 8.088-.025 12.133-.025M16.928 2.81h-2.434a6.05 6.05 0 0 0-5.228 3.003L7.08 9.575l-.048.084c-2.105 3.763.533 8.399 4.824 8.577h6.926v-.022h.003l-3.335-5.742c-1.965-3.385-1.059-7.32 1.477-9.662m3.634 18.49c.917 1.58 1.83 3.161 2.751 4.738l.583 1.003c2.237 3.853-.56 8.668-5.035 8.667h-4.367a6.05 6.05 0 0 1-5.228-3.003l-1.23-2.12c3.178.992 6.897-.053 8.938-3.134a8 8 0 0 0 .256-.412zm-1.793-1.019-2.5 4.305c-.276.476-.54.958-.815 1.434-2.237 3.852-7.83 3.852-10.066 0l-1.776-3.06a7.37 7.37 0 0 1 0-7.408l.817-1.408a7.94 7.94 0 0 0 2.648 4.332 7.77 7.77 0 0 0 5.037 1.805zm3.553-.028h6.684c4.474 0 7.27 4.815 5.033 8.667l-2.183 3.76a6.05 6.05 0 0 1-5.23 3.001h-2.429c2.534-2.342 3.44-6.275 1.475-9.66zm-1.755-3.05-3.34-5.75c-2.236-3.853.56-8.668 5.034-8.668h4.366a6.05 6.05 0 0 1 5.229 3.003L33.1 7.93c-3.32-1.04-7.23.14-9.206 3.543zm5.104-4.71c2.236-3.852 7.828-3.852 10.065 0l1.777 3.059a7.37 7.37 0 0 1 0 7.409l-.818 1.408c-.753-3.378-3.737-6.155-7.689-6.155h-6.658z" clip-rule="evenodd"/><path fill="#000" fill-opacity=".22" d="M14.494 2.81h2.434c-2.536 2.342-3.443 6.277-1.477 9.662l3.334 5.742h-.002v.023h-2.239l-2.784-4.795c-2.092-3.603-1.57-7.698.57-10.63zM4.429 14.144a7.94 7.94 0 0 0 2.648 4.333 7.77 7.77 0 0 0 5.037 1.804h6.655l-1.127 1.941h-5.528c-4.164 0-7.458-2.473-8.952-5.757q.191-.469.45-.913zM8.035 30.586c3.18.991 6.898-.054 8.939-3.135q.133-.2.256-.412l3.332-5.738.907 1.564.22.378-2.769 4.767c-2.1 3.615-5.946 5.211-9.58 4.82l-.074-.125zM26.794 35.679l-.168.002h-2.43c2.535-2.342 3.44-6.275 1.476-9.66l-3.35-5.768h2.254l2.786 4.799c2.092 3.602 1.57 7.696-.568 10.627M37.964 22.044a7 7 0 0 1-.452.917l-.817 1.408c-.754-3.378-3.738-6.155-7.69-6.155h-6.657l1.127-1.94h5.53c4.17 0 7.468 2.48 8.959 5.77M31.794 5.684l.062.104 1.243 2.142c-3.319-1.04-7.23.14-9.205 3.543l-3.327 5.73-1.128-1.94 2.764-4.76c2.102-3.619 5.954-5.215 9.59-4.819"/></svg>