<svg xmlns="http://www.w3.org/2000/svg" width="101" height="24" fill="none"><path fill="#15447A" d="M10.614 3.588c-.17-.401-.452-.958-.867-1.56A9.1 9.1 0 0 0 7.85.007c.394-.017.771 0 1.12.038.258.252.486.525.686.807.556.782.87 1.598.952 2.091a.2.2 0 0 0 .025.066.2.2 0 0 0 .025-.066c.083-.493.396-1.309.952-2.091.2-.282.428-.555.686-.807a7 7 0 0 1 1.12-.038 9.1 9.1 0 0 0-1.897 2.021 9 9 0 0 0-.867 1.56v.092l-.02-.047-.018.047z"/><path fill="#15447A" d="M10.633.444a5.6 5.6 0 0 0-.973-.29q.207.242.383.49c.228.32.418.648.57.96v.08l.02-.04.02.04v-.08a7 7 0 0 1 .953-1.45 5.6 5.6 0 0 0-.973.29M9.356 2.23A8.6 8.6 0 0 0 7.223.063a7 7 0 0 0-.62.115c.715.365 1.3.915 1.805 1.478.273.306.53.623.772.922l.3.368c.247.299.477.56.7.766a8.6 8.6 0 0 0-.824-1.48M8.049 1.898C7.457 1.238 6.8.654 6 .353q-.399.137-.79.342c.712.134 1.329.518 1.863.952.385.313.744.668 1.07.99q.185.184.356.349a5.4 5.4 0 0 0 .61.517q.165.025.345.075a13 13 0 0 1-.345-.403l-.31-.38c-.239-.296-.485-.6-.751-.897M10.633 23.617l.02.07v-.137c.094-.325.212-.644.343-.957.162-.388.344-.771.525-1.147l.057-.119c.162-.337.322-.668.467-1 .628-1.43.956-2.799-.05-4.27-.408.126-.891.181-1.362.186-.47-.005-.954-.06-1.363-.186-1.005 1.471-.677 2.84-.05 4.27.146.332.306.663.468 1l.057.119c.181.376.363.759.525 1.147.13.313.25.632.344.957v.137z"/><path fill="#15447A" d="M8.852 15.895c-1.08 1.614-.695 3.118-.057 4.573.148.338.31.675.473 1.012l.057.118c.181.376.36.75.517 1.129.176.422.325.845.422 1.273a7 7 0 0 0-.905-1.211 12 12 0 0 0-.43-.76q-.235-.382-.481-.767c-.34-.535-.685-1.076-.969-1.627-.418-.812-.685-1.61-.601-2.38.073-.676.418-1.351 1.219-2.008.15.272.417.487.755.648"/><path fill="#15447A" d="M6.424 17.218c.09-.836.545-1.645 1.543-2.402a1 1 0 0 1-.001-.172c.031-.035.104-.079.265-.124.161-.044.355-.076.58-.112l.232-.038c.311-.053.657-.122.965-.249.235-.097.456-.23.625-.42.169.19.39.323.625.42.308.127.654.196.965.249l.232.038c.224.036.418.068.58.112.161.045.233.089.265.124a1 1 0 0 1 0 .172c.997.757 1.45 1.566 1.541 2.402.095.87-.209 1.744-.639 2.578-.292.567-.652 1.133-.998 1.676l-.238.375c.644-.481 1.338-.878 2.046-1.281l.086-.05c.723-1.62.783-2.9.518-3.92-.316-1.214-1.098-2.09-1.846-2.762l-.005.005-.01.01a2 2 0 0 1-.234.204l-.051.031a.5.5 0 0 1-.126.05q-.06.015-.127.023l-.044-.013a7 7 0 0 0-.657-.128l-.205-.034c-.307-.052-.605-.114-.858-.218-.244-.1-.434-.234-.55-.426l.143-.82a.95.95 0 0 1 .435-.641l.072-.046.004-.003c.329-.209.67-.426 1.007-.766a.8.8 0 0 0 .228-.572c-.247.205-.575.32-.917.32H9.39c-.342 0-.67-.115-.917-.32 0 .208.072.414.228.572.336.34.678.557 1.006.766h.002l.075.049c.24.153.39.385.435.64l.143.821c-.116.192-.306.326-.55.426-.253.104-.551.166-.858.218l-.205.034c-.232.038-.466.075-.657.128l-.045.013a1 1 0 0 1-.126-.023.5.5 0 0 1-.177-.08 1.99 1.99 0 0 1-.235-.204q-.007-.009-.015-.016c-.747.672-1.53 1.548-1.845 2.762-.265 1.02-.205 2.3.518 3.92l.085.05c.709.403 1.403.8 2.047 1.28l-.238-.374c-.346-.543-.706-1.11-.998-1.676-.43-.834-.734-1.707-.64-2.578"/><path fill="#15447A" d="M7.226 13.507c-.788.7-1.67 1.654-2.02 3.002-.259.997-.224 2.192.327 3.641-.56-.329-1.119-.682-1.66-1.103a3.8 3.8 0 0 1-.243-1.183c-.032-.927.33-1.717.839-2.417.402-.554.887-1.04 1.342-1.495q.19-.19.368-.373c.25-.258.481-.51.656-.758l.027.001a3 3 0 0 0 .364.685"/><path fill="#15447A" d="M6.48 12.566q.162-.239.214-.44a2.8 2.8 0 0 1-.002-.584c.016-.163.042-.374.057-.497l-.133-.1-.093-.072-.039.108c-.083.214-.222.469-.428.759-.413.58-1.105 1.31-2.201 2.154-1.314 1.01-1.749 2.017-1.733 2.91q.005.286.069.56c.337.44.694.82 1.063 1.16a4 4 0 0 1-.079-.648c-.035-1.03.368-1.897.909-2.64.422-.581.938-1.098 1.395-1.555l.352-.356c.267-.275.492-.525.65-.759"/><path fill="#15447A" d="M6.132 10.531a1 1 0 0 1-.079.323c-.07.18-.192.408-.384.678-.384.54-1.045 1.242-2.116 2.066-1.312 1.01-1.84 2.052-1.884 3.024a11 11 0 0 1-.447-.756q.01-.248.057-.493c.19-.982.839-1.947 2.123-2.823 1.099-.749 1.724-1.45 2.087-1.984.114-.168.201-.318.27-.447q.163.207.373.412"/><path fill="#15447A" d="m5.435 9.769.033-.074a3.3 3.3 0 0 1-.296-.66q-.218.277-.588.65c-.505.502-1.245 1.13-2.278 1.832-1.179.8-1.654 1.838-1.795 2.714q.152.455.355.912c.25-1.037.966-2.025 2.255-2.903 1.054-.719 1.642-1.383 1.975-1.874.167-.245.272-.45.34-.597"/><path fill="#15447A" d="M5.043 8.448c-.083.164-.327.505-.802.977-.485.482-1.203 1.094-2.215 1.78-.95.644-1.482 1.428-1.759 2.18A9.7 9.7 0 0 1 0 11.372c.25-.556.969-1.414 2.532-2.05 1.023-.417 1.773-.91 2.286-1.35q.113-.098.212-.192-.027.314.013.668M4.498 7.69c.372-.319.595-.594.702-.768q.069-.217.163-.431a5 5 0 0 1-.347-.147c-.41.303-1.157.769-2.69 1.298C1.48 7.934.96 8.375.66 8.86a2.47 2.47 0 0 0-.354 1.372c.458-.444 1.118-.897 2.032-1.269.976-.397 1.683-.865 2.16-1.274M5.542 6.127c-1.384-.52-1.933-1.494-1.947-2.36-.015-.921.555-1.651 1.307-1.734.336-.037.676.11 1.172.476.235.173.492.385.79.63l.034.028q.366.304.82.661a5 5 0 0 0-.388.284c-.309-.443-1.137-.895-2.763-.802-.125.007-.22.101-.212.21s.117.191.242.184c1.686-.097 2.252.423 2.388.69l-.062.053c-.37-.096-.818-.115-1.242-.094-.475.023-.947.1-1.283.197-.12.034-.184.146-.144.25.04.103.168.159.288.124a5.5 5.5 0 0 1 1.165-.177c.306-.015.604-.006.86.033a6 6 0 0 0-1.025 1.347"/><path fill="#15447A" d="M7.211 2.88c.273.225.572.47.91.732a2 2 0 0 1 .327-.098 9 9 0 0 1-.285-.263q-.186-.178-.377-.369c-.32-.316-.655-.648-1.023-.947a5 5 0 0 0-.736-.507c-.835-.465-1.861-.155-2.536.52-1.298 1.299-.873 2.337-.46 3.27-.497.063-1.025.421-1.499 1.002.329-.173.67-.3 1.001-.394a6 6 0 0 1 1.412-.22c-.547-.552-.795-1.211-.805-1.834-.017-1.02.623-2.011 1.704-2.13.547-.06 1.023.196 1.525.566.245.18.51.399.803.64zM2.673 6.202c-.33.093-.667.223-.985.399-.567.315-.952.87-1.173 1.479q-.075.205-.14.421c.365-.5.939-.935 1.784-1.226 1.347-.465 2.051-.873 2.448-1.15a4 4 0 0 1-.172-.112c-.364-.037-1.041-.013-1.762.19M9.782 7.327l-.744 2.228c.205-.626.138-1.23.05-1.649a2.3 2.3 0 0 1-.738-.04c-.553-.122-.922-.547-1.273-.952l-.156-.178a4 4 0 0 0-.255-.254q.24.037.472.07c.952.14 1.79.263 2.644.775M9.038 9.555l-.008.025zM11.91 2.23A8.6 8.6 0 0 1 14.042.063q.308.042.62.115c-.714.365-1.3.915-1.804 1.478-.274.306-.53.623-.772.922l-.3.368c-.247.299-.477.56-.701.766.158-.372.426-.901.825-1.48M13.217 1.898c.592-.66 1.248-1.244 2.048-1.545q.398.137.79.342c-.713.134-1.33.518-1.863.952a15 15 0 0 0-1.07.99q-.185.184-.357.349a5.4 5.4 0 0 1-.608.517q-.165.025-.347.075.173-.193.346-.403l.31-.38c.239-.296.485-.6.751-.897M12.414 15.895c1.08 1.614.695 3.118.057 4.573-.148.338-.311.675-.473 1.012l-.057.118c-.181.376-.36.75-.517 1.129A8 8 0 0 0 11.002 24c.272-.462.576-.86.904-1.211q.197-.378.43-.76.235-.382.482-.767c.34-.535.684-1.076.969-1.627.418-.812.684-1.61.601-2.38-.073-.676-.418-1.351-1.22-2.008-.15.272-.416.487-.754.648M14.04 13.507c.788.7 1.67 1.654 2.02 3.002.259.997.224 2.192-.327 3.641.559-.329 1.118-.682 1.66-1.103.155-.422.23-.815.243-1.183.032-.927-.33-1.717-.839-2.417-.402-.554-.888-1.04-1.342-1.495l-.368-.373c-.251-.258-.481-.51-.656-.758l-.027.001a3 3 0 0 1-.365.685"/><path fill="#15447A" d="M14.785 12.566a1.5 1.5 0 0 1-.214-.44q.032-.29.003-.584a25 25 0 0 0-.057-.497l.133-.1.093-.072q.016.052.039.108c.083.214.221.469.428.759.412.58 1.104 1.31 2.201 2.154 1.314 1.01 1.749 2.017 1.733 2.91a2.8 2.8 0 0 1-.069.56c-.337.44-.694.82-1.063 1.16a4 4 0 0 0 .079-.648c.035-1.03-.369-1.897-.91-2.64-.422-.581-.937-1.098-1.394-1.555q-.185-.185-.352-.356a6 6 0 0 1-.65-.759"/><path fill="#15447A" d="M15.134 10.531c.002.071.023.179.079.323.07.18.192.408.384.678.384.54 1.044 1.242 2.116 2.066 1.312 1.01 1.84 2.052 1.883 3.024q.244-.377.448-.756a3 3 0 0 0-.057-.493c-.19-.982-.84-1.947-2.123-2.823-1.099-.749-1.724-1.45-2.087-1.984a5 5 0 0 1-.27-.447q-.163.207-.373.412"/><path fill="#15447A" d="m15.83 9.769-.032-.074q.194-.335.296-.66.217.277.587.65c.506.502 1.246 1.13 2.279 1.832 1.179.8 1.654 1.838 1.795 2.714q-.152.455-.355.912c-.25-1.037-.967-2.025-2.255-2.903-1.055-.719-1.642-1.383-1.976-1.874a4 4 0 0 1-.338-.597"/><path fill="#15447A" d="M16.223 8.448c.083.164.327.505.801.977.486.482 1.204 1.094 2.216 1.78.95.644 1.482 1.428 1.759 2.18a9.7 9.7 0 0 0 .267-2.013c-.25-.556-.97-1.414-2.532-2.05-1.023-.417-1.773-.91-2.286-1.35a6 6 0 0 1-.212-.192q.027.314-.013.668M16.768 7.69c-.372-.319-.596-.594-.702-.768a4 4 0 0 0-.164-.431q.183-.069.348-.147c.41.303 1.157.769 2.689 1.298.847.292 1.366.733 1.666 1.219.268.433.367.912.355 1.372-.458-.444-1.118-.897-2.032-1.269-.976-.397-1.683-.865-2.16-1.274M15.724 6.127c1.384-.52 1.933-1.494 1.947-2.36.015-.921-.556-1.651-1.307-1.734-.336-.037-.676.11-1.173.476-.234.173-.491.385-.79.63l-.033.028a40 40 0 0 1-.82.661q.197.13.387.284c.31-.443 1.138-.895 2.764-.802.125.007.22.101.212.21s-.117.191-.242.184c-1.686-.097-2.252.423-2.388.69l.062.053c.369-.096.818-.115 1.242-.094.475.023.947.1 1.283.197.12.034.184.146.144.25-.04.103-.169.159-.288.124a5.5 5.5 0 0 0-1.165-.177 4.4 4.4 0 0 0-.86.033 6 6 0 0 1 1.025 1.347"/><path fill="#15447A" d="M14.055 2.88c-.273.225-.572.47-.91.732a2 2 0 0 0-.327-.098q.141-.125.284-.263.187-.178.378-.369c.32-.316.655-.648 1.023-.947.23-.186.475-.362.736-.507.834-.465 1.861-.155 2.536.52 1.298 1.299.873 2.337.46 3.27.497.063 1.025.421 1.499 1.002a5 5 0 0 0-1.001-.394 6 6 0 0 0-1.413-.22c.548-.552.796-1.211.806-1.834.017-1.02-.623-2.011-1.705-2.13-.546-.06-1.022.196-1.524.566-.245.18-.51.399-.803.64zM18.593 6.202c.33.093.667.223.985.399.567.314.952.87 1.173 1.479q.075.205.14.421c-.365-.5-.939-.935-1.784-1.226-1.347-.465-2.051-.873-2.448-1.15q.09-.054.172-.112c.364-.037 1.041-.013 1.762.19M11.484 7.327l.744 2.228.008.025-.008-.025c-.206-.626-.138-1.23-.05-1.649.305.027.528.007.737-.04.554-.122.923-.547 1.274-.952l.156-.178q.106-.119.255-.254-.24.037-.472.07c-.952.14-1.79.263-2.644.775"/><path fill="#15447A" fill-rule="evenodd" d="M32.143 13.853a5 5 0 0 1-.348-1.895q0-1.031.348-1.882.348-.864.98-1.482a4.4 4.4 0 0 1 1.508-.967 5.2 5.2 0 0 1 1.933-.348q1.057 0 1.921.348a4.25 4.25 0 0 1 1.508.967q.645.618.992 1.482.35.85.349 1.882 0 1.032-.349 1.895a4.4 4.4 0 0 1-.992 1.482 4.5 4.5 0 0 1-1.508.967 5.3 5.3 0 0 1-1.92.335 5.4 5.4 0 0 1-1.934-.335 4.7 4.7 0 0 1-1.508-.967 4.5 4.5 0 0 1-.98-1.482m7.412-1.895q0-.902-.387-1.572a2.7 2.7 0 0 0-1.044-1.07q-.67-.387-1.56-.387-.876 0-1.56.387-.669.386-1.056 1.07-.375.669-.374 1.572 0 .89.374 1.573.387.683 1.057 1.07.682.386 1.56.386.888 0 1.559-.387a2.7 2.7 0 0 0 1.044-1.07q.387-.683.387-1.572" clip-rule="evenodd"/><path fill="#15447A" d="M49.714 9.715h.103V7.447a1.2 1.2 0 0 1-.438.077q-.219 0-.709-.116a4.5 4.5 0 0 0-1.16-.129q-1.52 0-2.668.593a4.3 4.3 0 0 0-1.766 1.637q-.632 1.044-.632 2.449 0 1.018.348 1.882.348.85.993 1.482t1.508.98a5.3 5.3 0 0 0 1.92.335q1.367 0 2.36-.567a3.83 3.83 0 0 0 1.52-1.573q.542-1.005.542-2.32 0-.1.01-.19.015-.143.054-.261a.9.9 0 0 1 .206-.322V11.3h-4.137a6 6 0 0 1-.58-.026 4 4 0 0 1-.529-.078V13.3h.103q.154-.22.516-.348.36-.142.94-.142h1.586q-.017.606-.335 1.095a2.35 2.35 0 0 1-.928.8q-.58.283-1.327.283-.877 0-1.56-.387a2.8 2.8 0 0 1-1.057-1.07q-.375-.683-.374-1.572 0-.915.413-1.598a2.77 2.77 0 0 1 1.16-1.057q.76-.374 1.766-.374.36 0 .67.051.322.04.593.142.283.09.515.271.245.18.374.322"/><path fill="#15447A" fill-rule="evenodd" d="M53.014 13.853a5 5 0 0 1-.349-1.895q0-1.031.349-1.882.347-.864.98-1.482a4.4 4.4 0 0 1 1.507-.967 5.2 5.2 0 0 1 1.934-.348q1.056 0 1.92.348a4.25 4.25 0 0 1 1.508.967q.644.618.993 1.482.348.85.348 1.882t-.348 1.895a4.4 4.4 0 0 1-.993 1.482 4.5 4.5 0 0 1-1.508.967 5.3 5.3 0 0 1-1.92.335 5.4 5.4 0 0 1-1.934-.335 4.7 4.7 0 0 1-1.508-.967 4.5 4.5 0 0 1-.98-1.482m7.411-1.895q0-.902-.387-1.572a2.7 2.7 0 0 0-1.044-1.07q-.67-.387-1.56-.387-.876 0-1.559.387-.671.386-1.057 1.07-.374.669-.374 1.572 0 .89.374 1.573.387.683 1.057 1.07.683.386 1.56.386.889 0 1.56-.387a2.7 2.7 0 0 0 1.043-1.07q.387-.683.387-1.572" clip-rule="evenodd"/><path fill="#15447A" d="M76.835 8.723q-.477.67-.941 1.817l-.993 2.436q-.296.735-.554 1.122-.245.386-.49.528a.97.97 0 0 1-.516.142 1.1 1.1 0 0 1-.412-.077 1.1 1.1 0 0 1-.335-.245h-.103v1.933a1 1 0 0 0 .104.025 3 3 0 0 0 .23.04q.207.025.452.025.606 0 1.083-.167.489-.168.876-.529.387-.374.735-.953.348-.581.683-1.405l.993-2.437q.296-.734.554-1.121.27-.4.503-.541l.031-.02.023-.015.017-.01.012-.006.017-.01.08-.037a.7.7 0 0 1 .27-.057q.207 0 .374.09a.8.8 0 0 1 .258.18h.103V7.409a1 1 0 0 1-.309.052h-.168a1 1 0 0 0-.108-.01l-.15-.003q-.708 0-1.275.296-.555.297-1.044.98M80.73 9.032q0-.58-.104-.915-.102-.348-.296-.503v-.103h2.514v.103q-.194.154-.297.503-.103.335-.103.915v4.138q0 .89.387 1.353.386.465 1.134.464.747 0 1.134-.464t.387-1.353V9.032q0-.58-.103-.915-.103-.348-.297-.503v-.103H87.6v.103q-.194.154-.297.503-.103.335-.103.915v4.215q0 1.096-.374 1.856-.36.761-1.082 1.147-.723.387-1.78.387t-1.778-.387a2.53 2.53 0 0 1-1.096-1.147q-.36-.76-.36-1.856zM88.926 9.135a3.4 3.4 0 0 0-.116-.967q-.117-.386-.335-.554v-.103h2.294v.077a.74.74 0 0 0-.155.568q.039.321.348.605l2.298 2.063 2.136-1.985q.35-.322.4-.658.064-.348-.116-.593v-.077h2.294v.103q-.206.168-.335.554-.116.387-.116.967v5.749q0 .58.103.928.104.335.297.49v.103h-2.514v-.103q.194-.155.297-.49.103-.348.103-.928v-4.321l-2.552 2.31h-.052L90.64 10.59v4.295q0 .58.103.928.104.335.297.49v.103h-2.514v-.103q.194-.155.297-.49.103-.348.103-.928z"/><path fill="#15447A" fill-rule="evenodd" d="M68.901 14.884q.001.593.116.941.129.334.348.477v.103h-2.578v-.103q.194-.155.297-.49.103-.348.103-.928V9.032q0-.58-.116-.915-.116-.348-.322-.503v-.103h3.21q1.65 0 2.577.85.941.852.941 2.347 0 .992-.425 1.714a2.83 2.83 0 0 1-1.212 1.096q-.786.386-1.882.386h-1.057zm0-5.8v3.248h.98q.89 0 1.353-.413.465-.425.464-1.211 0-.8-.464-1.212t-1.353-.412z" clip-rule="evenodd"/><path fill="#15447A" d="M63.56 8.117q.102.335.102.915v5.852q0 .246-.018.45a2.5 2.5 0 0 1-.085.478q-.03.099-.069.183-.036.079-.079.142a.7.7 0 0 1-.148.165v.103h2.514v-.103q-.194-.155-.297-.49-.103-.348-.103-.928V9.032q0-.58.103-.915.104-.348.296-.503v-.103h-2.513v.103q.194.154.296.503M27.224 14.807h2.616q.581 0 .928-.104.348-.115.503-.322h.103v2.127a3 3 0 0 0-.528-.09 13 13 0 0 0-.58-.013H25.07v-.103q.207-.155.323-.49.116-.348.116-.928V9.032q0-.58-.104-.915-.102-.348-.296-.503v-.103h2.578v.103a.7.7 0 0 0-.175.162q-.1.127-.173.315-.116.335-.116.941z"/><path fill="#15447A" fill-rule="evenodd" d="M92.652 20.75q0 .648.225.996.225.35.64.349a.72.72 0 0 0 .645-.349q.225-.348.224-.996 0-.648-.224-.996a.72.72 0 0 0-.644-.348.72.72 0 0 0-.64.348q-.225.348-.226.996m1.409 0q0 .513-.139.78-.135.264-.404.265-.266 0-.405-.266-.138-.266-.138-.779t.138-.779.405-.266q.27 0 .404.266.138.265.139.78" clip-rule="evenodd"/><path fill="#15447A" d="M91.907 21.746h-.709l.44-.595q.243-.33.348-.57.108-.24.108-.449a.65.65 0 0 0-.224-.52q-.225-.195-.61-.195a1.2 1.2 0 0 0-.387.056.4.4 0 0 1-.097.015h-.041l-.056-.008v.469h.026a.4.4 0 0 1 .06-.075.6.6 0 0 1 .243-.131.7.7 0 0 1 .21-.03q.251 0 .397.123a.42.42 0 0 1 .146.337q0 .113-.052.255a2 2 0 0 1-.17.326q-.111.187-.295.438l-.603.824v.026h1.375q.07 0 .138.004a1 1 0 0 1 .12.022v-.472h-.03a.26.26 0 0 1-.12.113.5.5 0 0 1-.217.037M82.345 21.739h-.929V20.73h.48q.123 0 .183.027a.2.2 0 0 1 .09.067h.026v-.487h-.026a.2.2 0 0 1-.09.068.5.5 0 0 1-.184.026h-.479v-.67h.906q.139 0 .218.037a.24.24 0 0 1 .12.112h.03v-.48a1.2 1.2 0 0 1-.259.027h-1.468v.03q.06.034.094.116a.6.6 0 0 1 .037.232v1.828q0 .15-.037.232a.22.22 0 0 1-.094.116v.03h1.49q.072 0 .139.004a.6.6 0 0 1 .12.022v-.479h-.026a.26.26 0 0 1-.12.112.5.5 0 0 1-.221.038M84.153 19.878h-.026a.3.3 0 0 0-.067-.06.3.3 0 0 0-.165-.068.4.4 0 0 0-.101-.011.46.46 0 0 0-.307.097.31.31 0 0 0-.117.248q0 .116.064.206a.9.9 0 0 0 .221.19l.195.128q.165.108.27.224a.8.8 0 0 1 .16.24.7.7 0 0 1 .053.281q0 .314-.228.513-.225.195-.645.195-.109 0-.22-.015a2 2 0 0 1-.18-.026v-.42h.026l.06.06q.03.023.067.041.045.027.113.045a.6.6 0 0 0 .15.02.58.58 0 0 0 .374-.113.37.37 0 0 0 .138-.3.4.4 0 0 0-.09-.258 1.2 1.2 0 0 0-.292-.251l-.19-.131a1 1 0 0 1-.3-.285.65.65 0 0 1-.09-.34q0-.294.213-.469.218-.18.596-.18.075 0 .123.008.052.003.09.004a.4.4 0 0 0 .105-.02zM84.835 19.761h.423v1.925a.6.6 0 0 1-.033.218.23.23 0 0 1-.09.112v.026h.57v-.026a.25.25 0 0 1-.094-.112.6.6 0 0 1-.03-.218v-1.925h.423q.138 0 .217.038a.24.24 0 0 1 .12.112h.03v-.48a1.2 1.2 0 0 1-.259.027h-1.385a1.3 1.3 0 0 1-.259-.026v.48h.03a.24.24 0 0 1 .116-.113.54.54 0 0 1 .221-.038"/><path fill="#15447A" fill-rule="evenodd" d="M87.437 19.458q.453 0 .776.154.325.153.498.445.176.29.176.693 0 .405-.176.697-.172.288-.498.442a1.8 1.8 0 0 1-.776.153h-.812v-.03a.22.22 0 0 0 .093-.116.6.6 0 0 0 .038-.232v-1.828q0-.15-.038-.232a.22.22 0 0 0-.094-.116v-.03zm1.113 1.292q0-.3-.132-.52a.87.87 0 0 0-.37-.345 1.2 1.2 0 0 0-.566-.124h-.404v1.978h.404q.33 0 .566-.12a.9.9 0 0 0 .37-.345q.132-.224.132-.524" clip-rule="evenodd"/><path fill="#15447A" d="M89.096 21.848q0 .097.064.164a.23.23 0 0 0 .169.068.21.21 0 0 0 .16-.068.22.22 0 0 0 .068-.165.22.22 0 0 0-.067-.16.21.21 0 0 0-.161-.068.23.23 0 0 0-.17.067.23.23 0 0 0-.063.162M95.65 21.686q0 .143.034.218a.27.27 0 0 0 .097.112v.026h-.588v-.026a.24.24 0 0 0 .098-.112.5.5 0 0 0 .037-.218v-1.808l-.57.273h-.03v-.311l.892-.408h.03z"/><path fill="#15447A" fill-rule="evenodd" d="M97.345 20.997a.8.8 0 0 1-.292.056.8.8 0 0 1-.416-.104.76.76 0 0 1-.288-.289.8.8 0 0 1-.105-.416q0-.247.112-.434a.8.8 0 0 1 .308-.296.9.9 0 0 1 .449-.108q.25 0 .446.105.194.1.303.284a.8.8 0 0 1 .112.423q0 .165-.056.334-.056.165-.187.378l-.678 1.112h-.36v-.026zm.311-.764a.55.55 0 0 1-.071.281.52.52 0 0 1-.48.262.56.56 0 0 1-.28-.067.5.5 0 0 1-.191-.187.6.6 0 0 1-.068-.277q0-.162.068-.281a.5.5 0 0 1 .194-.188.56.56 0 0 1 .285-.07q.157 0 .277.067a.5.5 0 0 1 .266.46" clip-rule="evenodd"/><path fill="#15447A" d="M100.343 6.743a.79.79 0 1 1-1.58 0 .79.79 0 0 1 1.58 0"/></svg>