<svg xmlns="http://www.w3.org/2000/svg" width="415" height="109" fill="none"><path fill="#E22935" fill-rule="evenodd" d="M63.579 23.258c-3.743 0-7.449.736-10.907 2.164a28.5 28.5 0 0 0-9.246 6.16 28.4 28.4 0 0 0-6.178 9.221 28.4 28.4 0 0 0-2.142 9.64c-.033.757-.456 1.45-1.135 1.789l-9.184 4.58c-.68.338-1.114 1.031-1.081 1.789.145 3.31.869 6.572 2.142 9.639a28.4 28.4 0 0 0 6.178 9.22 28.5 28.5 0 0 0 9.246 6.161 28.57 28.57 0 0 0 21.813 0 28.5 28.5 0 0 0 9.246-6.16 28.4 28.4 0 0 0 6.179-9.221 28.4 28.4 0 0 0 2.142-9.64c.033-.757.456-1.45 1.135-1.788l9.184-4.58c.679-.339 1.114-1.032 1.08-1.79a28.4 28.4 0 0 0-2.142-9.639 28.4 28.4 0 0 0-6.178-9.22 28.5 28.5 0 0 0-9.246-6.161 28.6 28.6 0 0 0-10.906-2.164m13.165 22.983c.558 1.343.905 2.76 1.03 4.203.067.755-.374 1.45-1.053 1.788l-9.184 4.58c-.68.338-1.096 1.032-1.162 1.788a14.18 14.18 0 0 1-4.12 8.812 14.283 14.283 0 0 1-20.153 0 14.2 14.2 0 0 1-4.12-8.812c-.065-.756.376-1.45 1.054-1.788l9.185-4.58c.679-.339 1.096-1.033 1.162-1.788a14.18 14.18 0 0 1 4.12-8.813 14.283 14.283 0 0 1 20.153 0 14.2 14.2 0 0 1 3.088 4.61" clip-rule="evenodd"/><path fill="#E22935" fill-rule="evenodd" d="M63.579.522a51.4 51.4 0 0 0-19.632 3.894 51.3 51.3 0 0 0-16.643 11.09 51.2 51.2 0 0 0-11.12 16.596 51 51 0 0 0-3.89 18.34 2.05 2.05 0 0 1-1.123 1.79l-9.185 4.58a1.95 1.95 0 0 0-1.092 1.79 51 51 0 0 0 3.89 18.339 51.15 51.15 0 0 0 11.12 16.597 51.3 51.3 0 0 0 16.643 11.089 51.42 51.42 0 0 0 39.264 0 51.3 51.3 0 0 0 16.643-11.09 51.15 51.15 0 0 0 11.12-16.596 51 51 0 0 0 3.89-18.34 2.05 2.05 0 0 1 1.122-1.79l9.185-4.58a1.95 1.95 0 0 0 1.093-1.789 51 51 0 0 0-3.89-18.34 51.2 51.2 0 0 0-11.12-16.597A51.3 51.3 0 0 0 83.21 4.415 51.4 51.4 0 0 0 63.579.523m25.63 58.08a2.07 2.07 0 0 1 1.127-1.79l9.185-4.58a1.94 1.94 0 0 0 1.087-1.79 36.9 36.9 0 0 0-2.8-12.902 36.9 36.9 0 0 0-8.03-11.986 37.1 37.1 0 0 0-12.02-8.01 37.14 37.14 0 0 0-28.357 0 37.1 37.1 0 0 0-12.02 8.01 36.9 36.9 0 0 0-8.032 11.986 36.9 36.9 0 0 0-2.8 12.902 2.07 2.07 0 0 1-1.128 1.79l-9.184 4.58a1.94 1.94 0 0 0-1.087 1.79 36.9 36.9 0 0 0 2.8 12.9 36.9 36.9 0 0 0 8.03 11.987A37.1 37.1 0 0 0 38 91.5a37.14 37.14 0 0 0 28.357 0 37.1 37.1 0 0 0 12.02-8.01 36.9 36.9 0 0 0 8.032-11.986 36.9 36.9 0 0 0 2.8-12.902" clip-rule="evenodd"/><path fill="#370808" d="M266.742 17.35q-2.278 0-3.853-1.575t-1.575-3.825q0-2.307 1.575-3.853 1.575-1.575 3.853-1.575t3.825 1.575q1.575 1.545 1.575 3.853 0 2.25-1.575 3.825-1.546 1.575-3.825 1.575M262.27 51.072V20.809h8.888v30.263z"/><path fill="#370808" fill-rule="evenodd" d="M276.172 59.976V20.809h8.437v3.01h.11a14 14 0 0 1 1.718-1.435q2.981-2.08 6.863-2.081 3.403 0 6.497 1.772 3.121 1.771 5.062 5.26 1.94 3.486 1.885 8.69.028 3.937-1.097 6.862-1.125 2.897-3.038 4.81t-4.275 2.868q-2.363.957-4.781.957-3.825 0-6.863-2.138a15 15 0 0 1-1.449-1.181h-.182v6.694zm15.3-15.88q1.968-.027 3.459-1.04 1.491-1.012 2.334-2.869.845-1.856.816-4.331.029-2.53-.844-4.331-.843-1.828-2.39-2.785-1.548-.984-3.544-.956-1.884-.029-3.375.928-1.49.957-2.363 2.785-.871 1.8-.871 4.359 0 2.475.871 4.331.9 1.857 2.419 2.869t3.488 1.04" clip-rule="evenodd"/><path fill="#370808" d="M320.476 51.522q-2.7 0-5.175-.929a13.7 13.7 0 0 1-4.331-2.615 11.2 11.2 0 0 1-2.84-3.994l6.975-3.066q.702 1.322 2.109 2.504 1.406 1.18 3.319 1.18 1.012 0 1.772-.337.76-.365 1.181-.928.45-.562.45-1.21 0-.815-.647-1.405-.646-.591-1.659-1.013a18 18 0 0 0-2.138-.731q-1.096-.31-2.025-.563a18.6 18.6 0 0 1-4.05-1.772 9.74 9.74 0 0 1-3.066-2.925q-1.18-1.77-1.181-4.303 0-2.671 1.378-4.697 1.406-2.052 3.797-3.206 2.419-1.153 5.513-1.153 3.853 0 6.918 1.772 3.094 1.772 4.388 4.697l-6.834 2.953q-.536-.9-1.575-1.744-1.013-.843-2.588-.844-1.321 0-2.194.675-.872.675-.872 1.688t.872 1.631q.873.62 2.222 1.069 1.35.45 2.813.872 1.125.309 2.615.9 1.491.562 2.897 1.547a8.05 8.05 0 0 1 2.363 2.53q.956 1.548.956 3.798 0 2.841-1.575 5.034-1.546 2.166-4.134 3.375-2.56 1.21-5.654 1.21M367.967 51.072V20.809h8.466v3.853h.155a11 11 0 0 1 2.235-2.334q2.532-1.97 5.991-1.969 2.869 0 4.866 1.406 1.54 1.05 2.511 2.813h.159a10.3 10.3 0 0 1 3.489-2.869q2.672-1.35 5.822-1.35 3.009 0 4.95 1.069 1.94 1.04 3.037 2.756a11.2 11.2 0 0 1 1.547 3.713q.45 1.996.45 3.88v19.295h-8.943V32.875q0-2.475-1.041-3.797-1.013-1.35-2.981-1.35-1.295 0-2.307.59-.984.563-1.575 1.716-.562 1.154-.562 2.84v18.198h-8.888V32.875q0-2.475-1.04-3.797-1.04-1.35-3.01-1.35-1.912 0-3.178 1.322-1.265 1.293-1.265 3.88v18.142zM340.537 50.2q2.56 1.322 5.682 1.322 3.684 0 6.525-1.8 1.437-.925 2.615-2.11h.226a4.75 4.75 0 0 0 1.181 1.631q1.546 1.407 4.893 2.279l3.15-7.425q-1.463-.535-1.94-1.266-.478-.731-.478-2.363V20.81h-8.888V38.64q0 1.66-.647 2.87a4.43 4.43 0 0 1-1.744 1.827q-1.097.647-2.559.647-1.968 0-3.347-1.35-1.35-1.378-1.35-3.994V20.81h-8.887v19.012q0 3.825 1.49 6.44 1.52 2.588 4.078 3.938"/><path fill="#370808" fill-rule="evenodd" d="M243.025 51.522q-4.36 0-7.96-1.997a15.34 15.34 0 0 1-5.709-5.513q-2.109-3.516-2.109-8.1t2.109-8.1q2.138-3.516 5.709-5.484 3.6-1.97 7.96-1.969 4.443 0 8.015 1.969a14.7 14.7 0 0 1 5.653 5.484q2.11 3.516 2.11 8.1t-2.11 8.1q-2.08 3.515-5.681 5.513-3.572 1.996-7.987 1.997m0-7.594q2.08 0 3.74-1.013t2.616-2.812.956-4.19q0-2.307-.928-4.107-.929-1.8-2.559-2.813-1.632-1.04-3.769-1.04-2.11 0-3.797 1.012-1.659.985-2.616 2.785-.956 1.8-.956 4.162 0 2.39.956 4.19.985 1.8 2.644 2.813t3.713 1.013M207.861 63.334q-3.77 0-6.919-.928-3.122-.9-4.922-1.856l2.925-6.975q1.575.956 3.656 1.631 2.109.703 4.275.703 1.857 0 3.853-.619 1.998-.618 3.403-1.968 1.407-1.322 1.407-3.488V46.91h-.135q-.825.815-1.778 1.49-3.01 2.11-6.862 2.11-2.39 0-4.753-.9-2.363-.928-4.304-2.784-1.912-1.885-3.065-4.697t-1.153-6.61q0-5.062 1.968-8.409 1.998-3.375 5.119-5.062 3.122-1.716 6.497-1.716 3.909 0 6.834 1.997.94.635 1.745 1.406h.168v-2.953h8.072v28.547q0 3.459-1.181 6.075a11.94 11.94 0 0 1-3.347 4.387q-2.138 1.773-5.063 2.644-2.925.9-6.44.9m1.096-20.053q2.025 0 3.572-1.012t2.447-2.813q.9-1.828.9-4.219 0-2.418-.872-4.134-.872-1.744-2.39-2.672-1.52-.928-3.516-.928-1.997 0-3.572.956-1.575.929-2.475 2.672-.872 1.744-.872 4.106t.872 4.19q.871 1.8 2.391 2.842 1.518 1.012 3.515 1.012M175.453 51.522q-4.36 0-7.96-1.997a15.34 15.34 0 0 1-5.709-5.513q-2.109-3.516-2.109-8.1t2.109-8.1q2.138-3.516 5.709-5.484 3.6-1.97 7.96-1.969 4.443 0 8.015 1.969a14.7 14.7 0 0 1 5.653 5.484q2.11 3.516 2.11 8.1t-2.11 8.1q-2.08 3.515-5.681 5.513-3.572 1.996-7.987 1.997m0-7.594q2.08 0 3.74-1.013t2.616-2.812.956-4.19q0-2.307-.928-4.107-.929-1.8-2.559-2.813-1.632-1.04-3.769-1.04-2.11 0-3.797 1.012-1.659.985-2.616 2.785-.956 1.8-.956 4.162 0 2.39.956 4.19.985 1.8 2.644 2.813t3.713 1.013" clip-rule="evenodd"/><path fill="#370808" d="M135.648 51.072V9.615h9.225V42.86h14.934v8.213z"/><path fill="#AAA" fill-rule="evenodd" d="M276.184 65.97v8.314h-.253q-.55-.48-1.154-.9-2.952-2.08-6.806-2.081-3.404 0-6.525 1.772-3.122 1.771-5.062 5.26-1.941 3.486-1.857 8.69-.056 3.937 1.069 6.862 1.125 2.897 3.038 4.81t4.275 2.868 4.781.957q3.825 0 6.862-2.138a14.5 14.5 0 0 0 2.727-2.531h.277a5.2 5.2 0 0 0 .962 1.547q.872.927 2.306 1.715 1.463.76 3.544 1.407l3.122-7.425q-1.294-.479-1.856-1.153-.563-.675-.563-2.335V60.891zm-2.925 28.086q-1.519 1.013-3.488 1.04-1.941-.027-3.459-1.04-1.519-1.012-2.363-2.869-.815-1.856-.787-4.331-.029-2.53.844-4.331.872-1.828 2.39-2.785 1.547-.984 3.544-.956 1.884-.029 3.375.928 1.49.957 2.362 2.785.873 1.8.9 4.359-.027 2.475-.9 4.331-.871 1.857-2.418 2.869" clip-rule="evenodd"/><path fill="#AAA" d="M386.512 102.072V71.809h8.607v3.966h.135q.357-.538.793-1.013a10 10 0 0 1 3.769-2.531q2.193-.872 4.696-.872 3.037 0 5.232 1.406 2.193 1.407 3.375 3.853 1.18 2.448 1.181 5.654v19.8h-8.888v-17.86q0-2.728-1.293-4.078-1.295-1.378-3.516-1.378-1.462 0-2.644.647-1.18.618-1.884 1.856-.675 1.21-.675 3.038v17.775z"/><path fill="#AAA" fill-rule="evenodd" d="M368.244 102.522q-4.36 0-7.96-1.997a15.34 15.34 0 0 1-5.709-5.513q-2.11-3.515-2.11-8.1t2.11-8.1q2.137-3.515 5.709-5.484 3.6-1.97 7.96-1.969 4.443 0 8.015 1.969a14.7 14.7 0 0 1 5.653 5.484q2.11 3.516 2.11 8.1 0 4.585-2.11 8.1-2.08 3.516-5.681 5.513-3.572 1.997-7.987 1.997m0-7.594q2.08 0 3.74-1.013 1.659-1.012 2.616-2.812.956-1.8.956-4.19 0-2.307-.928-4.107t-2.559-2.812q-1.632-1.041-3.769-1.041-2.11 0-3.797 1.012-1.659.985-2.616 2.785-.956 1.8-.956 4.162 0 2.39.956 4.19.985 1.8 2.644 2.813t3.713 1.013" clip-rule="evenodd"/><path fill="#AAA" d="M340.975 102.072V71.809h8.887v30.263zM341.593 66.775q1.575 1.575 3.854 1.575 2.277 0 3.825-1.575 1.575-1.575 1.575-3.825 0-2.307-1.575-3.853-1.548-1.575-3.825-1.575-2.279 0-3.854 1.575-1.575 1.546-1.575 3.853 0 2.25 1.575 3.825M324.646 99.428q2.728 3.094 8.325 3.094 1.716 0 3.375-.31 1.688-.309 2.954-.928l-2.869-7.003a5.4 5.4 0 0 1-1.097.422 4.8 4.8 0 0 1-1.266.169q-1.378 0-2.334-.844-.928-.872-.928-2.813V79.178h7.003v-7.369h-7.003V63.09h-8.888v8.72h-5.062v7.368h5.062V91.44q0 4.866 2.728 7.988"/><path fill="#AAA" fill-rule="evenodd" d="M293.609 101.284q2.334 1.238 5.4 1.238 3.543 0 6.244-1.407 2.182-1.125 3.195-2.503h.137q.394.675 1.055 1.35 1.322 1.35 3.938 2.222l1.04.338 3.122-7.425-.675-.225q-.984-.31-1.378-1.097-.366-.816-.366-2.363V82.3q0-1.632-.393-3.516-.366-1.913-1.575-3.572-1.21-1.688-3.713-2.756-2.503-1.097-6.75-1.097-2.728 0-5.119.45-2.363.422-4.218 1.069-1.829.646-2.954 1.294l2.954 6.693q1.04-.675 2.475-1.18 1.434-.535 2.981-.817a15 15 0 0 1 2.897-.309q1.18 0 2.109.281.928.254 1.575.76t.956 1.237q.338.703.338 1.575v1.519h-5.71q-3.937 0-6.75 1.21-2.784 1.209-4.275 3.318-1.462 2.11-1.462 4.838 0 2.587 1.294 4.668 1.321 2.082 3.628 3.319m8.634-11.784h5.063v1.884q0 1.66-1.069 2.644a6 6 0 0 1-2.475 1.406q-1.435.422-2.503.422-1.154 0-2.081-.366-.9-.393-1.407-1.068-.506-.704-.506-1.688 0-1.66 1.266-2.447 1.294-.787 3.712-.787" clip-rule="evenodd"/><path fill="#AAA" d="M224.699 102.072V71.809h8.606v3.966h.136q.357-.538.793-1.013a10 10 0 0 1 3.768-2.531q2.194-.872 4.697-.872 3.038 0 5.231 1.406 2.194 1.407 3.375 3.853 1.182 2.448 1.182 5.654v19.8h-8.888v-17.86q0-2.728-1.294-4.078-1.293-1.378-3.515-1.378-1.462 0-2.644.647-1.181.618-1.884 1.856-.675 1.21-.675 3.038v17.775zM203.787 102.522q-3.122 0-5.682-1.322-2.559-1.35-4.078-3.938-1.49-2.615-1.49-6.44V71.809h8.887V89.64q0 2.616 1.35 3.994 1.378 1.35 3.347 1.35 1.463 0 2.559-.647a4.43 4.43 0 0 0 1.744-1.828q.647-1.209.647-2.869V71.81h8.887v19.659q0 1.631.479 2.362.477.731 1.94 1.266l-3.15 7.425q-3.346-.872-4.894-2.279a4.7 4.7 0 0 1-1.18-1.63h-.226a15.5 15.5 0 0 1-2.615 2.109q-2.841 1.8-6.525 1.8"/><path fill="#AAA" fill-rule="evenodd" d="M174.465 102.522q-4.36 0-7.96-1.997a15.34 15.34 0 0 1-5.709-5.513q-2.11-3.515-2.11-8.1t2.11-8.1q2.137-3.515 5.709-5.484 3.6-1.97 7.96-1.969 4.443 0 8.015 1.969a14.7 14.7 0 0 1 5.653 5.484q2.11 3.516 2.11 8.1 0 4.585-2.11 8.1-2.08 3.516-5.681 5.513-3.572 1.997-7.987 1.997m0-7.594q2.08 0 3.74-1.013 1.659-1.012 2.616-2.812.956-1.8.956-4.19 0-2.307-.928-4.107t-2.559-2.812q-1.632-1.041-3.769-1.041-2.11 0-3.797 1.012-1.659.985-2.616 2.785-.956 1.8-.956 4.162 0 2.39.956 4.19.985 1.8 2.644 2.813t3.713 1.013" clip-rule="evenodd"/><path fill="#AAA" d="M135.58 102.072V60.615h24.159v8.213h-14.934v9.534h12.431v8.213h-12.431v15.497z"/><path fill="#FF6670" d="M114.864 50.522h-14.255a1.94 1.94 0 0 1-1.087 1.71l-9.185 4.58a2.06 2.06 0 0 0-1.125 1.71h14.255a2.05 2.05 0 0 1 1.12-1.71l9.185-4.58a1.96 1.96 0 0 0 1.092-1.71M.894 58.522h14.255a1.94 1.94 0 0 1 1.088-1.71l9.185-4.58a2.06 2.06 0 0 0 1.124-1.71H12.29a2.05 2.05 0 0 1-1.12 1.71l-9.184 4.58a1.96 1.96 0 0 0-1.093 1.71M35.101 50.522a2.08 2.08 0 0 1-1.13 1.71l-9.184 4.58a1.92 1.92 0 0 0-1.083 1.71h14.274c-.03-.725.403-1.384 1.059-1.71l9.185-4.58c.655-.327 1.066-.986 1.153-1.71zM77.78 50.522c.03.724-.403 1.383-1.058 1.71l-9.185 4.58c-.656.326-1.067.985-1.154 1.71h14.274a2.08 2.08 0 0 1 1.13-1.71l9.185-4.58a1.92 1.92 0 0 0 1.082-1.71z"/></svg>