<svg xmlns="http://www.w3.org/2000/svg" width="423" height="113" fill="none"><path fill="#193070" fill-rule="evenodd" d="m.879 12.439 7.395-3.22a108 108 0 0 1 86.21 0l7.395 3.22v49.743c0 27.89-22.61 50.5-50.5 50.5s-50.5-22.61-50.5-50.5zm16 10.52v21.768a34 34 0 0 0 16.041-9.004 34 34 0 0 0 9.59-19.05A92 92 0 0 0 16.88 22.96m.003 39.678a34 34 0 0 1 25.997 32.99c-14.803-3.75-25.791-17.07-25.997-32.99m33.997 5.915a50 50 0 0 0-14.87-14.87 50 50 0 0 0 14.87-14.871 50 50 0 0 0 14.87 14.87 50 50 0 0 0-14.87 14.871m8 27.312c15.376-3.409 26.893-17.077 27-33.454a34 34 0 0 0-27 33.272zm20.989-52.77a34 34 0 0 0 6.01 1.86V22.958a92 92 0 0 0-26.644-6.378 34 34 0 0 0 20.634 26.513" clip-rule="evenodd"/><path fill="#788199" fill-rule="evenodd" d="M222.027 102.758q-3.6 0-6.48-1.728-2.88-1.776-4.56-4.8-1.632-3.072-1.632-6.912 0-3.888 1.632-6.912 1.68-3.024 4.512-4.752 2.88-1.776 6.528-1.776 3.312 0 5.904 1.44 2.122 1.178 3.504 3.033V65.846h3.6v36.336h-3.6v-4.193q-1.293 2.045-3.456 3.281-2.64 1.488-5.952 1.488m.192-3.6q2.592 0 4.656-1.296a9.2 9.2 0 0 0 3.312-3.504q1.248-2.256 1.248-5.04t-1.248-4.992q-1.2-2.256-3.312-3.552-2.064-1.296-4.656-1.296-2.544 0-4.608 1.296t-3.264 3.504q-1.152 2.208-1.152 5.04 0 2.784 1.152 5.04 1.2 2.208 3.216 3.504 2.064 1.296 4.656 1.296M246.171 101.03q2.928 1.728 6.528 1.728 2.64 0 4.8-.864 2.208-.912 3.792-2.352 1.584-1.488 2.352-3.216l-3.072-1.632a10.8 10.8 0 0 1-3.12 3.36q-1.92 1.344-4.752 1.344a9.06 9.06 0 0 1-4.608-1.248q-2.112-1.248-3.36-3.504-.969-1.862-.999-4.224h20.247q.096-.624.144-1.2.048-.624.048-1.104a12.5 12.5 0 0 0-.816-4.464 12.3 12.3 0 0 0-2.352-3.936 10.8 10.8 0 0 0-3.744-2.784q-2.16-1.056-4.944-1.056-3.504 0-6.336 1.728-2.784 1.728-4.416 4.752-1.632 2.976-1.632 6.864t1.68 6.96 4.56 4.848m-2.382-13.968q.178-1.703.894-3.072 1.152-2.256 3.168-3.504a8.47 8.47 0 0 1 4.464-1.248q2.4 0 4.32 1.248 1.92 1.2 2.928 3.312.758 1.483.749 3.264z" clip-rule="evenodd"/><path fill="#788199" d="M269.078 76.454h3.6v3.134a7.8 7.8 0 0 1 2.544-2.462 8.9 8.9 0 0 1 4.608-1.248q2.976 0 5.376 1.68 1.856 1.298 2.879 3.2.988-2.092 2.833-3.296a9.4 9.4 0 0 1 5.28-1.584q2.592 0 4.752 1.248a9.3 9.3 0 0 1 3.504 3.456q1.344 2.16 1.344 4.896v16.704h-3.6V86.87q0-2.352-.864-3.984-.816-1.632-2.256-2.496-1.44-.912-3.312-.912-1.824 0-3.312.912-1.488.864-2.352 2.544-.864 1.632-.864 3.936v15.312h-3.6V86.87q0-2.352-.864-3.984-.816-1.632-2.256-2.496-1.44-.912-3.312-.912t-3.36.912q-1.44.864-2.304 2.544-.864 1.632-.864 3.936v15.312h-3.6zM311.291 112.742a9 9 0 0 1-1.584-.144 6.8 6.8 0 0 1-1.536-.384v-3.36q.48.048 1.2.144a8.3 8.3 0 0 0 1.536.144q2.352 0 3.6-1.008 1.248-.96 2.448-3.744l.93-2.189-10.29-25.747h3.888l8.423 21.237 8.377-21.237h3.984l-11.76 28.992a17.6 17.6 0 0 1-1.968 3.552 8.7 8.7 0 0 1-2.928 2.688q-1.776 1.056-4.32 1.056"/><path fill="#788199" fill-rule="evenodd" d="M187.454 101.846q1.92.912 4.369.912 2.256 0 4.127-.672 1.92-.72 3.312-1.872a8.4 8.4 0 0 0 1.584-1.715v3.683h3.601V84.518q0-2.544-1.249-4.464-1.2-1.968-3.407-3.072-2.16-1.104-4.993-1.104-2.16 0-4.176.816a12.3 12.3 0 0 0-3.6 2.112q-1.535 1.344-2.256 2.976l3.265 1.776q.863-1.872 2.64-3.024 1.775-1.2 4.127-1.2 2.688 0 4.369 1.44 1.679 1.44 1.679 3.744v1.328l-9.312 1.552q-2.832.48-4.655 1.632-1.825 1.152-2.689 2.832-.863 1.632-.863 3.648 0 2.112 1.103 3.744 1.105 1.632 3.024 2.592m13.392-12.736v1.936q0 2.352-1.104 4.272t-3.071 3.072q-1.968 1.104-4.609 1.104-2.16 0-3.552-1.2-1.343-1.2-1.343-2.928 0-1.776 1.199-3.072 1.248-1.296 4.032-1.776z" clip-rule="evenodd"/><path fill="#788199" d="M169.27 102.758q-3.792 0-6.672-1.776t-4.512-4.8q-1.632-3.072-1.632-6.912t1.632-6.864 4.512-4.752q2.88-1.776 6.672-1.776 2.4 0 4.512.864a12.6 12.6 0 0 1 3.744 2.352q1.632 1.44 2.448 3.36l-3.264 1.68q-.96-2.064-2.928-3.36t-4.512-1.296-4.608 1.296q-2.016 1.248-3.216 3.504-1.152 2.208-1.152 5.04 0 2.784 1.152 5.04 1.2 2.208 3.216 3.504 2.064 1.296 4.608 1.296t4.464-1.296a8.2 8.2 0 0 0 2.976-3.456l3.264 1.776q-.816 1.872-2.448 3.36a12.6 12.6 0 0 1-3.744 2.352q-2.112.864-4.512.864"/><path fill="#788199" fill-rule="evenodd" d="m138.463 66.422-13.056 35.76h4.032l3.12-8.736h15.984l3.072 8.736h4.032l-13.056-35.76zm8.736 23.424h-13.392l6.718-18.917z" clip-rule="evenodd"/><path fill="#0C193E" d="M128.66 8.499v42.683h26.928v-7.735H137.54V8.5zM264.274 51.182h8.594V19.9h-8.594zM264.274 8.499v8.594h8.594V8.499z"/><path fill="#0C193E" fill-rule="evenodd" d="M277.438 62.64V19.9h8.021v3.245q1.39-1.635 3.437-2.615 2.693-1.317 6.131-1.318 4.468 0 8.078 2.178t5.729 5.9q2.12 3.667 2.12 8.25 0 4.527-2.12 8.25-2.063 3.725-5.672 5.902t-8.193 2.177q-3.209 0-5.958-1.146a10.9 10.9 0 0 1-2.979-1.944V62.64zm16.5-18.505q2.406 0 4.24-1.089 1.833-1.089 2.864-3.036 1.031-1.949 1.031-4.47t-1.031-4.41q-1.03-1.949-2.864-3.037-1.834-1.146-4.24-1.146-2.292 0-4.125 1.088-1.776 1.089-2.807 3.037-.974 1.948-.974 4.469 0 2.52.974 4.469 1.03 1.947 2.807 3.036 1.833 1.089 4.125 1.089" clip-rule="evenodd"/><path fill="#0C193E" d="M317.534 49.463q3.838 2.406 8.995 2.406 3.666 0 6.359-1.203 2.693-1.26 4.183-3.437 1.547-2.178 1.547-5.1 0-3.38-2.063-5.671-2.062-2.349-5.958-3.495l-4.985-1.49a12.3 12.3 0 0 1-1.948-.745q-.744-.401-1.088-.916a2.02 2.02 0 0 1-.344-1.146q0-1.204.917-1.89.973-.689 2.635-.688 2.292 0 4.068 1.203 1.833 1.146 2.521 3.093l6.359-2.979q-1.432-3.896-4.927-6.015-3.437-2.178-8.021-2.178-3.495 0-6.188 1.26-2.692 1.204-4.182 3.381t-1.489 5.1q0 3.322 2.062 5.786 2.062 2.406 5.901 3.495l5.328 1.49q1.032.286 1.719.687t1.031.916q.345.459.344 1.146 0 1.318-.974 2.063t-2.807.745a7.86 7.86 0 0 1-4.584-1.433q-2.062-1.432-3.265-3.953l-6.302 2.98q1.374 4.125 5.156 6.588M374.613 19.9h8.021v3.779a7.1 7.1 0 0 1 2.464-2.748q2.635-1.719 6.302-1.719 3.896 0 6.818 2.006 1.737 1.135 2.715 2.74 1.242-1.814 2.957-2.912 2.864-1.834 6.703-1.834 3.38 0 5.958 1.49 2.636 1.49 4.125 4.182 1.49 2.636 1.49 6.188v20.11h-8.594V32.905q0-1.833-.687-3.15a4.8 4.8 0 0 0-1.834-2.063q-1.203-.745-2.922-.745-1.66 0-2.921.745-1.204.744-1.891 2.062-.63 1.319-.63 3.151v18.277h-8.594V32.905q0-1.833-.688-3.15a4.8 4.8 0 0 0-1.833-2.063q-1.203-.745-2.922-.745-1.662 0-2.922.745-1.203.744-1.891 2.062-.63 1.319-.63 3.151v18.277h-8.594zM353.264 51.87q-3.781 0-6.474-1.605-2.636-1.662-4.01-4.584-1.375-2.921-1.375-6.817V19.9h8.594v18.276q0 1.776.687 3.151a5.35 5.35 0 0 0 2.063 2.063q1.317.745 2.979.745 1.719 0 2.979-.745a4.96 4.96 0 0 0 2.005-2.063q.745-1.375.745-3.15V19.9h8.594v31.282h-8.021v-3.807q-1.093 2.06-3.094 3.176-2.406 1.318-5.672 1.318"/><path fill="#0C193E" fill-rule="evenodd" d="M244.201 51.87q-4.641 0-8.48-2.12a16.65 16.65 0 0 1-6.073-5.787q-2.234-3.724-2.234-8.422 0-4.756 2.234-8.422a16.65 16.65 0 0 1 6.073-5.787q3.839-2.12 8.48-2.12 4.64 0 8.422 2.12 3.78 2.12 6.015 5.787 2.292 3.666 2.292 8.422 0 4.699-2.292 8.422-2.234 3.666-6.015 5.786-3.782 2.12-8.422 2.12m0-7.735q2.35 0 4.067-1.089 1.776-1.089 2.75-3.036 1.032-1.949 1.032-4.47t-1.032-4.41q-.974-1.949-2.75-3.037-1.718-1.146-4.067-1.146t-4.125 1.146q-1.777 1.089-2.808 3.036-.974 1.89-.974 4.412 0 2.52.974 4.469 1.031 1.947 2.808 3.036t4.125 1.089M201.894 62.583q3.094 1.203 6.703 1.203 4.526 0 7.964-1.833 3.495-1.834 5.5-5.1 2.004-3.207 2.005-7.333V19.9h-8.021v3.286q-1.416-1.662-3.208-2.599-2.521-1.374-5.902-1.375-4.296 0-7.677 1.948t-5.328 5.386q-1.948 3.38-1.948 7.792 0 4.41 1.948 7.906a14.45 14.45 0 0 0 5.386 5.443q3.437 1.947 7.791 1.948 3.381 0 5.901-1.26a10 10 0 0 0 2.464-1.816v2.961q0 2.006-.859 3.495a5.13 5.13 0 0 1-2.349 2.234q-1.548.802-3.667.802-2.692 0-4.641-1.26t-2.578-3.437l-7.964 2.807q.974 2.922 3.152 5.041 2.233 2.178 5.328 3.38m10.198-21.657q-1.605.917-3.782.917t-3.895-.917a7.26 7.26 0 0 1-2.636-2.635q-.917-1.661-.917-3.839 0-2.235.917-3.896.974-1.719 2.636-2.635 1.718-.974 3.895-.974 2.12 0 3.724.974 1.605.917 2.521 2.635.918 1.662.917 3.896 0 2.235-.917 3.896a6.17 6.17 0 0 1-2.463 2.578M173.169 51.87q-4.64 0-8.479-2.12a16.65 16.65 0 0 1-6.073-5.787q-2.234-3.724-2.234-8.422 0-4.756 2.234-8.422a16.65 16.65 0 0 1 6.073-5.787q3.838-2.12 8.479-2.12t8.422 2.12 6.016 5.787q2.292 3.666 2.292 8.422 0 4.699-2.292 8.422-2.235 3.666-6.016 5.786t-8.422 2.12m0-7.735q2.349 0 4.068-1.089 1.776-1.089 2.75-3.036 1.031-1.949 1.031-4.47t-1.031-4.41q-.974-1.949-2.75-3.037-1.719-1.146-4.068-1.146t-4.125 1.146q-1.776 1.089-2.807 3.036-.974 1.89-.974 4.412 0 2.52.974 4.469 1.03 1.947 2.807 3.036t4.125 1.089" clip-rule="evenodd"/></svg>