<svg xmlns="http://www.w3.org/2000/svg" width="413" height="117" fill="none"><path fill="#1D3AA7" d="M357.551 45.182v-.56h.056q2.016 0 3.248-1.232 1.232-1.233 1.232-3.248V21.774q0-2.129-.896-3.304-.84-1.176-3.64-1.176v-.56h5.544q2.296 0 3.528-.224 1.288-.224 1.904-.56.616-.393.896-.784h.56l.056 7.28q1.456-2.913 4.424-4.704 2.968-1.792 6.272-1.792 3.192 0 5.32 1.792 2.128 1.791 2.744 4.816a12.1 12.1 0 0 1 4.48-4.816q2.968-1.792 6.384-1.792 3.751-.001 5.992 2.464 2.296 2.464 2.296 6.496v15.232q0 2.016 1.232 3.248t3.248 1.232h.056v.56h-17.08v-.56h.056q2.016 0 3.248-1.232 1.232-1.233 1.232-3.248V24.35q0-2.8-1.12-4.48t-2.912-1.68q-1.736 0-3.64 1.568-1.905 1.512-3.304 3.976a.6.6 0 0 1 .056.28v16.128q0 2.016 1.232 3.248t3.248 1.232h.056v.56h-17.08v-.56h.056q2.016 0 3.248-1.232 1.232-1.233 1.232-3.248V24.35q0-2.8-1.12-4.48-1.063-1.68-2.856-1.68-1.736 0-3.64 1.512-1.848 1.455-3.248 3.976v16.464q0 2.016 1.232 3.248t3.248 1.232h.056v.56z"/><path fill="#1D3AA7" d="m345.774 46.75-.056-7.224q-1.457 2.856-4.424 4.648-2.969 1.792-6.272 1.792-3.753 0-6.048-2.464-2.24-2.464-2.24-6.496V21.774q0-2.129-.84-3.304-.84-1.176-3.696-1.176v-.56h5.656q2.856 0 4.368-.616 1.4-.617 1.96-1.512h.56v22.96q0 2.8 1.12 4.48t2.912 1.68q1.736 0 3.584-1.456 1.848-1.512 3.248-4.032V21.774q0-2.016-1.008-3.248t-3.472-1.232v-.56h5.656q2.856 0 4.368-.616 1.455-.617 2.016-1.512h.56l-.056 25.536q0 2.016 1.232 3.304 1.232 1.232 3.248 1.232v.504h-5.544q-1.457 0-2.576.056-1.12.111-1.848.224-1.512.336-2.128 1.288zM311.053 45.966q-1.457 0-2.184-.112a16 16 0 0 1-1.4-.28q-.617-.169-1.68-.28-1.064-.112-3.248-.112l-1.344-10.528h.728q.895 5.264 3.36 7.952 2.464 2.631 5.376 2.632 2.856 0 4.312-1.176 1.512-1.176 1.512-3.192 0-1.289-.672-2.24-.616-1.008-2.184-2.016-1.568-1.065-4.256-2.52l-1.624-.896q-3.08-1.737-4.592-4.032-1.456-2.352-1.456-5.04 0-3.808 2.744-5.992 2.8-2.184 7.448-2.184 1.176 0 1.904.112.728.111 1.4.28.672.168 1.68.28t2.688.112l.784 9.016h-.672q-.336-2.632-1.512-4.648-1.12-2.073-2.688-3.192-1.567-1.176-3.192-1.176-2.128 0-3.416 1.12-1.232 1.12-1.232 3.136 0 1.511.952 2.8 1.008 1.232 3.808 2.688l1.68.84q3.92 2.016 5.712 4.2t1.792 5.6q0 8.736-10.528 8.848M265.153 56.942v-.56h.056q2.016 0 3.248-1.232 1.232-1.233 1.232-3.248V21.774q-.056-2.464-1.064-3.472t-3.472-1.008v-.56h5.544q3.304 0 4.536-.616 1.233-.617 1.792-1.512h.56l.056 7.168q1.289-2.52 3.92-4.2t5.544-1.68q3.137 0 5.544 1.904 2.409 1.903 3.752 5.208 1.4 3.247 1.4 7.504 0 4.704-1.68 8.176-1.68 3.471-4.76 5.376-3.024 1.904-7.224 1.904-2.295 0-3.752-.728-1.456-.672-2.632-2.296v8.96q0 2.016 1.232 3.248t3.248 1.232h.056v.56zm17.808-11.928q3.024 0 4.592-3.752 1.512-3.809 1.512-10.92 0-12.208-4.928-12.208-1.904 0-3.752 1.512t-2.632 3.696V36.39q0 4.032 1.4 6.328 1.4 2.295 3.808 2.296"/><path fill="#1D3AA7" d="M249.872 45.182v-.56h.056q2.016 0 3.248-1.232 1.232-1.233 1.232-3.248V21.774q0-2.129-.896-3.304-.84-1.176-3.64-1.176v-.56h5.712q2.856 0 4.368-.616 1.4-.617 1.96-1.512h.56v25.536q0 2.016 1.232 3.248 1.233 1.232 3.248 1.232h.056v.56zm8.512-34.104q-2.016 0-3.36-1.288-1.287-1.344-1.288-3.36 0-2.017 1.288-3.304 1.344-1.344 3.36-1.344 1.96 0 3.248 1.344 1.344 1.344 1.344 3.304t-1.344 3.304q-1.287 1.344-3.248 1.344M233.805 45.966q-4.591 0-8.064-1.848-3.415-1.848-5.32-5.208-1.904-3.36-1.904-7.952t1.904-7.952q1.905-3.36 5.32-5.208 3.472-1.848 8.064-1.848t8.008 1.848q3.417 1.848 5.32 5.208t1.904 7.952-1.904 7.952q-1.903 3.36-5.32 5.208-3.415 1.848-8.008 1.848m-.056-.728q1.96 0 3.36-1.96 1.401-1.96 2.184-5.208.784-3.304.784-7.168 0-4.2-.84-7.392-.783-3.249-2.24-5.04-1.4-1.848-3.192-1.848-1.904 0-3.36 1.96-1.4 1.959-2.184 5.208-.783 3.248-.784 7.112 0 4.255.84 7.504.84 3.247 2.24 5.04 1.456 1.792 3.192 1.792"/><path fill="#1D3AA7" d="M203.496 57.726q-5.936 0-9.632-1.624-3.64-1.569-3.64-4.144 0-1.96 1.848-3.528 1.904-1.512 5.152-2.352-5.264-1.344-5.264-4.76 0-1.848 1.456-3.416 1.456-1.625 4.088-2.576-2.8-1.233-4.368-3.584-1.512-2.352-1.512-5.544 0-4.65 3.192-7.448 3.248-2.8 8.68-2.8 2.576-.001 5.04.784h10.304l-.56 1.008h-7.616q2.24 1.288 3.416 3.472 1.232 2.127 1.232 4.984 0 4.648-3.192 7.504-3.136 2.8-8.624 2.8-3.024-.001-5.32-.896-1.792.95-1.792 2.24 0 1.119 1.568 1.512.784.224 2.24.392t3.528.224l1.96.112q6.44.223 9.912 2.464 3.528 2.24 3.528 6.104 0 4.312-4.144 6.664-4.144 2.408-11.48 2.408m-.056-21.896q1.736 0 2.856-2.632 1.008-2.632 1.008-7 0-4.425-1.008-7-1.064-2.52-2.8-2.52-1.792 0-2.8 2.52-1.008 2.575-1.008 7 0 4.423 1.008 7.056 1.008 2.576 2.744 2.576m.672 21.168q2.576 0 4.76-.784 2.184-.728 3.472-2.072 1.344-1.344 1.344-3.08 0-1.905-1.96-3.024-2.072-1.065-6.328-1.12l-1.96-.112a36 36 0 0 1-3.024-.224 20 20 0 0 1-2.408-.336q-1.176.392-1.736 1.568t-.56 2.8q0 2.911 2.184 4.648t6.216 1.736M173.157 45.966q-4.592 0-8.064-1.848-3.416-1.848-5.32-5.208t-1.904-7.952q0-4.593 1.904-7.952t5.32-5.208q3.472-1.848 8.064-1.848t8.008 1.848 5.32 5.208 1.904 7.952-1.904 7.952-5.32 5.208-8.008 1.848m-.056-.728q1.96 0 3.36-1.96t2.184-5.208q.784-3.304.784-7.168 0-4.2-.84-7.392-.784-3.249-2.24-5.04-1.4-1.848-3.192-1.848-1.904 0-3.36 1.96-1.4 1.959-2.184 5.208t-.784 7.112q0 4.255.84 7.504.84 3.247 2.24 5.04 1.457 1.792 3.192 1.792M124.301 45.182v-.56h.056q2.015 0 3.248-1.064 1.232-1.065 1.232-3.08V8.222q0-2.016-1.232-3.248-1.233-1.232-3.248-1.232h-.056v-.56h17.864v.56h-.224q-2.016 0-3.248 1.232t-1.232 3.248v32.48q0 1.791.84 2.8.896.952 3.08.952h1.176q4.983 0 8.4-3.08 3.415-3.08 4.312-8.68h.56l-1.68 12.488z"/><path fill="#7F869E" d="M356.465 116.726q-2.296 0-4.424-.896l2.184-6.552q1.4.56 3.024.952 1.68.392 3.36.392a9 9 0 0 0 3.976-.896q1.903-.84 2.856-3.192l.616-1.512-11.088-25.704q-.56-1.345-1.456-2.128-.952-.84-2.576-.896v-.56h16.184v.56q-1.512.167-2.352 1.064-.784.895-.784 2.296 0 1.231.56 2.52l5.656 13.272 5.656-13.272q.56-1.288.56-2.52 0-1.4-.84-2.296-.785-.896-2.352-1.064v-.56h7.728v.56q-1.288.279-2.184 1.68-.896 1.344-1.904 3.696l-11.424 26.544q-1.792 4.143-4.648 6.328-2.856 2.184-6.328 2.184"/><path fill="#7F869E" d="M345.742 104.966q-2.912 0-4.76-1.848t-1.848-4.816v-21.56h-4.76v-.728q3.864-.28 6.888-2.464 3.08-2.184 5.04-5.88h.896v8.064h7.448l-.56 1.008h-6.888V97.07q0 4.48 3.024 4.48 1.008 0 2.296-.616a10.8 10.8 0 0 0 2.52-1.624v.56q-1.848 2.352-4.368 3.752-2.52 1.344-4.928 1.344M318.177 104.182v-.56h.056q2.016 0 3.248-1.232t1.232-3.248V80.774q0-2.129-.896-3.304-.84-1.176-3.64-1.176v-.56h5.712q2.856 0 4.368-.616 1.4-.617 1.96-1.512h.56v25.536q0 2.016 1.232 3.248t3.248 1.232h.056v.56zm8.512-34.104q-2.016 0-3.36-1.288-1.288-1.344-1.288-3.36t1.288-3.304q1.344-1.344 3.36-1.344 1.96 0 3.248 1.344 1.344 1.344 1.344 3.304t-1.344 3.304q-1.288 1.344-3.248 1.344M306.733 104.966q-1.456 0-2.184-.112a16 16 0 0 1-1.4-.28q-.616-.168-1.68-.28t-3.248-.112l-1.344-10.528h.728q.895 5.264 3.36 7.952 2.463 2.632 5.376 2.632 2.856 0 4.312-1.176 1.512-1.176 1.512-3.192 0-1.29-.672-2.24-.617-1.008-2.184-2.016-1.569-1.065-4.256-2.52l-1.624-.896q-3.08-1.737-4.592-4.032-1.456-2.352-1.456-5.04 0-3.809 2.744-5.992 2.8-2.184 7.448-2.184 1.175 0 1.904.112t1.4.28 1.68.28 2.688.112l.784 9.016h-.672q-.336-2.632-1.512-4.648-1.12-2.073-2.688-3.192-1.569-1.176-3.192-1.176-2.129 0-3.416 1.12-1.233 1.12-1.232 3.136 0 1.511.952 2.8 1.008 1.23 3.808 2.688l1.68.84q3.92 2.016 5.712 4.2 1.791 2.183 1.792 5.6 0 8.736-10.528 8.848M270.27 104.182v-.56h.056q2.015 0 3.248-1.232 1.232-1.232 1.232-3.248V80.774q0-2.129-.896-3.304-.84-1.176-3.64-1.176v-.56h5.544q2.967 0 4.48-.56 1.512-.617 2.128-1.568h.28l.056 9.184a29 29 0 0 1 1.848-3.528 10.9 10.9 0 0 1 2.912-3.08q1.791-1.289 4.256-1.288.84 0 1.792.168a9.5 9.5 0 0 1 2.016.616l-2.184 6.552q-2.016-1.12-3.528-1.568-1.457-.449-2.576-.448-1.905 0-2.856 1.176-.897 1.176-1.568 2.8v14.952q0 2.016 1.232 3.248t3.248 1.232h.056v.56zM256.341 104.854q-3.864 0-6.888-1.904-2.968-1.904-4.648-5.264-1.68-3.417-1.68-7.784 0-4.48 1.848-7.84t5.04-5.208q3.249-1.904 7.336-1.904 3.417 0 6.048 1.344 2.688 1.344 4.256 3.808 1.625 2.408 1.848 5.6l.056.84h-18.816v.28q0 5.935 2.632 9.52 2.632 3.528 7.056 3.528 2.688 0 5.096-1.288 2.464-1.344 3.976-3.584l.504.168a13.75 13.75 0 0 1-2.968 5.04 14.5 14.5 0 0 1-4.76 3.416q-2.744 1.232-5.936 1.232m-5.544-19.152h11.368q0-4.425-1.456-7.168-1.4-2.744-3.976-2.744-2.463 0-4.088 2.688-1.623 2.688-1.848 7.224M229.492 105.078l-11.144-25.76q-.56-1.288-1.512-2.128-.896-.84-2.52-.896v-.56h15.68v.56q-1.96.224-2.576 1.736-.56 1.512.392 3.808l5.768 13.496 5.712-13.16q.56-1.288.56-2.52 0-1.4-.84-2.296t-2.352-1.064v-.56h8.848v.56q-1.456.336-2.8 1.68T240.3 81.67l-10.304 23.408zM200.435 104.182v-.56h.056q2.016 0 3.248-1.232t1.232-3.248V80.774q0-2.129-.896-3.304-.84-1.176-3.64-1.176v-.56h5.712q2.856 0 4.368-.616 1.4-.617 1.96-1.512h.56v25.536q0 2.016 1.232 3.248t3.248 1.232h.056v.56zm8.512-34.104q-2.016 0-3.36-1.288-1.288-1.344-1.288-3.36t1.288-3.304q1.344-1.344 3.36-1.344 1.96 0 3.248 1.344 1.344 1.344 1.344 3.304t-1.344 3.304q-1.288 1.344-3.248 1.344"/><path fill="#7F869E" d="M165.051 104.182v-.56h.056q2.015 0 3.248-1.232 1.232-1.232 1.232-3.248V80.774q0-2.129-.896-3.304-.84-1.176-3.64-1.176v-.56h5.544q2.856 0 4.368-.616 1.4-.617 1.96-1.512h.56l.056 7.84q1.455-2.913 4.424-4.704 2.967-1.792 6.272-1.792 3.751-.001 5.992 2.464 2.295 2.463 2.296 6.496v15.232q0 2.016 1.232 3.248t3.248 1.232h.056v.56h-17.08v-.56h.056q2.015 0 3.248-1.232 1.232-1.232 1.232-3.248V83.35q0-2.8-1.12-4.48-1.065-1.68-2.856-1.68-1.737 0-3.64 1.512-1.848 1.456-3.248 3.976v16.464q0 2.016 1.232 3.248t3.248 1.232h.056v.56zM144.909 104.966q-4.929 0-8.568-1.904-3.64-1.905-5.656-5.376-1.96-3.528-1.96-8.232V67.222q0-2.016-1.232-3.248-1.233-1.233-3.248-1.232h-.224v-.56h18.032v.56h-.168q-2.016 0-3.248 1.232t-1.232 3.248v22.232q0 5.935 3.024 9.408 3.08 3.416 8.288 3.416 5.264 0 8.288-3.472 3.024-3.529 3.024-9.352V68.062q0-2.409-1.456-3.808-1.456-1.401-3.864-1.512v-.56h11.592v.56q-2.409.111-3.864 1.512-1.456 1.4-1.456 3.808v21.392q0 4.704-1.96 8.176-1.905 3.471-5.544 5.432-3.585 1.904-8.568 1.904"/><path fill="#1D3AA7" fill-rule="evenodd" d="M85.3 7.182v-7h16.001v64.5c0 27.89-22.61 50.5-50.5 50.5-26.714 0-48.583-20.743-50.38-47H.3v-68h16v7h27v-7h16v7zm0 57.5v-9.817a66 66 0 0 1-5.775 5.277c-6.758 5.479-14.696 9.76-23.33 12.659-8.636 2.9-17.851 4.38-27.13 4.38h-10.43c5.007 12.875 17.52 22 32.166 22 19.054 0 34.5-15.446 34.5-34.5m-40.482-12.05a50.4 50.4 0 0 1-10.22 8.334c5.683-.443 11.247-1.568 16.502-3.333 6.953-2.334 13.177-5.726 18.348-9.92 5.17-4.19 9.16-9.076 11.839-14.32 1.692-3.312 2.849-6.74 3.471-10.211H58.786a54.6 54.6 0 0 1-3.231 12.428c-2.477 6.338-6.118 12.126-10.737 17.022m-28.517-1.233V23.182h26.27a38.5 38.5 0 0 1-1.919 6.605c-1.744 4.465-4.29 8.493-7.472 11.865-3.18 3.371-6.93 6.019-11.023 7.816-1.9.834-3.86 1.48-5.856 1.93" clip-rule="evenodd"/></svg>